<?xml version="1.0" standalone="no"?>
<!DOCTYPE svg PUBLIC "-//W3C//DTD SVG 20010904//EN"
 "http://www.w3.org/TR/2001/REC-SVG-20010904/DTD/svg10.dtd">
<svg version="1.0" xmlns="http://www.w3.org/2000/svg"
 width="683.000000pt" height="683.000000pt" viewBox="0 0 683.000000 683.000000"
 preserveAspectRatio="xMidYMid meet">
<metadata>
Created by potrace 1.14, written by Peter Selinger 2001-2017
</metadata>
<g transform="translate(0.000000,683.000000) scale(0.100000,-0.100000)"
fill="#000000" stroke="none">
<path d="M0 5191 c1 -1274 3 -1641 13 -1645 9 -3 9 -5 0 -5 -8 -1 -13 -14 -13
-32 0 -17 4 -28 10 -24 6 4 10 -5 10 -19 0 -14 -6 -26 -12 -26 -10 0 -10 -2
-1 -8 13 -8 23 -345 23 -800 0 -188 1 -203 17 -200 16 3 18 15 14 112 -3 87
-1 107 9 101 8 -5 11 -4 6 3 -12 20 -18 537 -11 1070 7 502 8 532 25 532 50 0
50 -2 50 -181 0 -100 4 -169 10 -169 20 0 26 34 19 108 -12 123 -29 901 -29
1334 0 313 3 410 15 460 8 35 15 77 17 95 1 17 6 29 10 26 5 -2 6 -14 2 -26
-14 -41 -4 -901 12 -1111 8 -110 17 -203 20 -208 4 -6 5 -218 2 -318 -3 -84 8
-378 14 -374 3 2 6 52 6 112 0 59 1 186 1 282 0 96 -2 207 -5 245 -3 39 -8
120 -13 180 -4 61 -9 337 -10 615 -1 278 -5 530 -9 560 -4 30 -7 70 -7 88 1
17 -2 32 -7 32 -4 0 -5 6 -3 13 2 6 7 30 10 52 3 28 2 36 -5 25 -5 -8 -10 -26
-10 -40 l-1 -25 -10 25 c-6 14 -10 64 -10 112 0 64 -4 92 -15 102 -10 11 -13
26 -8 57 l7 43 14 -48 c8 -26 16 -46 18 -44 2 2 5 23 6 46 2 23 7 42 12 42 5
0 5 6 -1 13 -6 7 -7 18 -2 27 4 7 5 23 0 35 -5 12 -5 27 -1 33 4 7 8 33 10 60
1 26 9 54 17 62 9 8 14 11 13 5 -1 -5 -1 -23 0 -38 1 -36 19 -31 44 10 23 40
13 67 -22 58 -14 -4 -37 -9 -51 -12 -32 -6 -31 -4 -46 -60 -13 -45 -13 -41 -8
62 3 61 8 113 10 117 10 16 14 98 5 98 -5 0 -12 -10 -14 -22 l-4 -23 -2 23
c-1 21 -5 22 -71 22 l-70 0 0 -1639z m67 47 c-2 -24 -4 -5 -4 42 0 47 2 66 4
43 2 -24 2 -62 0 -85z m62 -668 c7 -158 7 -236 0 -238 -6 -3 -5 -10 3 -20 12
-15 11 -16 -4 -3 -10 7 -16 17 -13 21 3 5 -4 15 -15 23 -20 14 -21 24 -21 266
0 169 4 265 13 293 l12 43 7 -75 c5 -41 13 -181 18 -310z m5 -288 c3 -5 -1 -9
-9 -9 -8 0 -12 4 -9 9 3 4 7 8 9 8 2 0 6 -4 9 -8z"/>
<path d="M344 6473 c10 -464 13 -570 21 -673 4 -47 7 -151 6 -232 -1 -129 1
-148 15 -148 13 0 15 9 11 48 -17 169 -31 872 -23 1167 4 147 -1 195 -22 195
-13 0 -14 -41 -8 -357z"/>
<path d="M400 6805 c0 -14 2 -25 4 -25 2 0 6 11 8 25 3 14 1 25 -3 25 -5 0 -9
-11 -9 -25z"/>
<path d="M450 6758 c0 -40 4 -192 10 -338 5 -146 14 -557 21 -915 6 -357 14
-697 18 -755 9 -151 6 1516 -4 1823 -8 240 -9 257 -27 257 -16 0 -18 -9 -18
-72z"/>
<path d="M553 6785 c0 -27 2 -38 4 -22 2 15 2 37 0 50 -2 12 -4 0 -4 -28z"/>
<path d="M619 6738 c-1 -51 -3 -105 -4 -120 -2 -16 2 -29 11 -32 9 -4 12 -2 8
5 -3 6 -6 62 -5 125 1 63 0 114 -3 114 -4 0 -7 -42 -7 -92z"/>
<path d="M806 6402 l2 -427 23 0 c21 0 24 4 22 35 -12 211 -22 769 -14 792 9
25 8 28 -12 28 l-22 0 1 -428z"/>
<path d="M884 6368 c3 -255 6 -469 6 -475 0 -7 3 -13 8 -13 4 0 7 214 7 475 0
399 -2 475 -14 475 -12 0 -13 -71 -7 -462z"/>
<path d="M1243 6633 c4 -129 2 -223 -5 -271 -10 -62 -10 -75 3 -83 18 -11 20
-11 39 1 13 8 13 12 0 32 -12 19 -16 71 -18 271 -2 170 -7 247 -14 247 -8 0
-9 -58 -5 -197z"/>
<path d="M1421 6814 c0 -11 3 -14 6 -6 3 7 2 16 -1 19 -3 4 -6 -2 -5 -13z"/>
<path d="M1980 6776 c0 -52 11 -78 25 -56 8 13 -6 110 -16 110 -5 0 -9 -24 -9
-54z"/>
<path d="M2334 6730 c0 -58 1 -81 3 -52 2 28 2 76 0 105 -2 28 -3 5 -3 -53z"/>
<path d="M3299 6818 c-4 -46 18 -72 79 -92 62 -22 65 -13 5 18 -57 28 -78 50
-69 71 3 8 1 15 -4 15 -6 0 -11 -6 -11 -12z"/>
<path d="M4015 6793 c25 -60 77 -142 114 -179 35 -34 108 -64 160 -64 14 0 31
-4 37 -8 8 -4 16 -66 21 -162 l10 -155 1 162 2 163 35 14 c19 8 35 18 35 21 0
3 -9 1 -19 -5 -27 -14 -139 -12 -184 4 -20 8 -52 25 -71 40 -40 30 -115 139
-123 178 -3 15 -12 28 -19 28 -12 0 -12 -6 1 -37z"/>
<path d="M5351 6768 c-39 -73 -116 -184 -134 -194 -8 -5 -8 -2 2 12 7 10 -4 1
-25 -22 -70 -73 -69 -73 -68 24 l2 87 -7 -80 c-8 -97 -20 -122 -151 -299 -134
-183 -174 -231 -191 -231 -8 0 -15 -10 -15 -23 -1 -13 -12 -34 -24 -45 l-23
-22 23 35 23 35 -34 -32 c-31 -30 -53 -83 -27 -67 6 4 6 -2 -1 -15 -13 -24
-23 -28 -15 -6 12 29 -5 14 -92 -86 -49 -55 -117 -125 -151 -154 -36 -30 -57
-55 -50 -58 7 -2 0 -10 -16 -17 -24 -12 -33 -11 -72 8 -58 28 -57 19 2 -18 26
-17 42 -30 35 -30 -6 0 -9 -7 -5 -16 5 -13 2 -15 -14 -10 -18 6 -20 3 -15 -20
4 -21 1 -25 -14 -23 -11 1 -27 -1 -37 -6 -27 -11 -96 1 -119 22 -20 18 -20 17
-14 -2 16 -53 45 -170 42 -172 -2 -2 -18 43 -37 99 -28 84 -38 104 -55 106
-14 2 -25 14 -32 35 -6 21 -10 25 -10 12 -1 -11 8 -45 18 -75 13 -38 17 -44
13 -20 -3 20 -2 31 3 27 5 -5 9 -30 9 -56 0 -46 -1 -48 -22 -38 -13 6 -23 19
-23 31 0 12 -5 28 -10 36 -9 13 -12 12 -26 -5 -8 -11 -17 -31 -20 -45 -3 -14
-11 -48 -19 -76 -19 -64 -19 -82 1 -221 13 -87 14 -117 5 -126 -36 -36 -71 79
-44 145 16 37 18 198 2 198 -20 0 -39 67 -31 107 l8 38 7 -54 c7 -62 23 -87
31 -50 7 32 15 351 9 345 -8 -8 -32 -210 -26 -219 3 -5 0 -8 -8 -5 -8 2 -22
27 -31 54 l-18 49 5 -50 c3 -27 2 -63 -3 -80 -9 -29 -9 -27 -17 24 -4 29 -16
81 -26 115 l-19 61 7 -55 c10 -72 6 -201 -7 -231 -8 -19 -9 -10 -7 44 2 37 0
67 -4 67 -7 0 -24 -46 -31 -85 -2 -11 -8 9 -13 45 -8 58 -9 61 -12 25 -2 -22
-6 -51 -9 -65 -6 -24 -7 -23 -20 13 -11 32 -11 45 0 78 15 42 6 54 -12 17 -14
-29 -15 -5 -3 40 13 45 -5 31 -19 -16 -7 -20 -17 -41 -23 -47 -7 -7 -8 -6 -4
1 4 7 -1 18 -11 25 -15 12 -16 12 -5 -1 8 -10 9 -21 3 -30 -6 -8 -10 -25 -10
-38 0 -13 -4 -20 -10 -17 -5 3 -10 15 -10 27 0 24 -29 88 -40 88 -4 0 -2 -17
6 -37 20 -59 16 -84 -6 -35 -21 46 -36 58 -20 16 6 -14 10 -27 10 -29 0 -2
-25 22 -56 53 -31 32 -52 50 -48 42 4 -8 9 -26 11 -41 1 -14 14 -46 28 -70 13
-24 24 -51 24 -59 0 -8 -7 1 -16 20 -20 45 -94 173 -98 168 -2 -2 3 -26 10
-53 11 -45 11 -122 0 -134 -3 -2 -5 18 -5 44 0 50 -15 53 -22 5 -3 -21 -7 -16
-20 25 -9 29 -16 41 -17 28 -1 -32 -19 -38 -27 -8 -3 14 -11 25 -17 25 -6 0
-22 10 -36 23 l-25 22 21 -30 c26 -39 43 -90 43 -131 0 -53 -17 -48 -24 8 -9
63 -53 150 -92 180 -28 22 -28 21 4 -16 20 -22 31 -44 28 -54 -3 -9 -2 -30 3
-47 l9 -30 2 30 c1 26 3 27 10 10 12 -27 12 -87 0 -105 -7 -11 -10 -5 -10 23
0 45 -16 49 -25 5 l-7 -32 -39 42 c-28 29 -39 36 -39 24 -1 -14 -2 -14 -12 3
-6 11 -15 22 -19 25 -4 3 -12 56 -18 119 -14 140 -26 168 -35 80 -3 -35 -9
-86 -14 -114 l-8 -50 -23 70 c-13 39 -27 74 -32 80 -12 12 -11 3 6 -75 17 -79
18 -83 4 -75 -5 4 -21 32 -35 62 -13 31 -27 54 -30 50 -3 -3 2 -19 11 -37 9
-18 14 -34 11 -37 -3 -3 -8 2 -12 11 -10 26 -24 18 -20 -11 3 -16 14 -52 26
-82 11 -30 20 -63 18 -75 -3 -18 -7 -15 -28 19 -13 22 -55 83 -94 135 -38 52
-82 119 -98 150 -16 30 -31 57 -33 59 -13 12 20 -68 64 -159 49 -102 71 -164
30 -87 -27 52 -113 167 -105 142 16 -52 36 -138 33 -141 -2 -2 -19 1 -38 6
-27 8 -46 26 -89 86 -30 43 -65 89 -78 103 l-23 26 7 -55 c3 -30 3 -52 0 -49
-4 4 -9 29 -10 57 -2 28 -7 56 -11 62 -4 6 -6 37 -4 68 4 78 0 137 -7 129 -4
-4 -6 -46 -5 -94 l2 -87 -33 26 -33 26 3 83 c2 60 0 80 -7 69 -6 -8 -11 -32
-11 -52 0 -21 -4 -38 -8 -38 -14 0 -311 280 -316 298 -3 9 -10 64 -16 122 -12
127 -20 170 -29 170 -4 0 -2 -44 5 -97 7 -54 13 -110 14 -126 0 -27 0 -27 -25
-11 -14 9 -22 21 -18 27 3 5 1 7 -5 3 -6 -3 -32 19 -59 51 -26 32 -94 105
-150 163 -101 104 -160 184 -197 268 -27 59 -31 46 -7 -19 11 -29 19 -54 17
-56 -2 -2 -22 26 -46 62 -24 36 -45 63 -48 60 -3 -3 0 -11 6 -17 7 -7 11 -30
10 -52 -1 -37 -2 -38 -5 -8 -7 51 -23 37 -24 -20 -1 -42 -3 -48 -9 -28 -11 34
-12 25 -11 -130 l1 -135 -35 60 c-45 77 -44 67 1 -29 l36 -75 -1 -143 c-1 -78
-4 -144 -6 -146 -2 -3 -17 10 -32 28 -15 19 -34 41 -42 49 -7 9 -5 3 4 -14 10
-16 28 -41 41 -55 l24 -26 -14 -149 c-8 -92 -16 -142 -20 -130 -5 11 -13 33
-18 48 -6 15 -13 25 -16 23 -2 -3 6 -30 18 -61 21 -51 22 -66 16 -157 -6 -78
-11 -105 -24 -114 -15 -11 -15 -14 -1 -31 9 -10 19 -27 23 -37 5 -16 4 -17 -9
-6 -8 7 -15 9 -15 4 -1 -5 -7 2 -16 16 l-15 25 7 -25 c3 -14 13 -41 20 -60 14
-34 14 -34 -3 -14 -10 11 -67 58 -128 104 l-110 83 55 -58 c30 -31 82 -77 115
-103 77 -58 89 -71 42 -42 -49 29 -56 21 -17 -19 17 -17 29 -35 25 -40 -3 -5
0 -13 6 -17 8 -5 8 -9 -1 -14 -9 -6 -7 -13 8 -28 23 -23 17 -38 -7 -20 -10 8
-9 4 3 -10 20 -23 32 -30 20 -10 -4 7 -3 8 4 4 7 -4 12 -16 12 -27 0 -11 11
-35 25 -53 31 -41 23 -50 -21 -24 -45 27 -48 52 -3 28 40 -22 17 1 -35 34 -29
19 -61 45 -71 58 -18 23 -17 17 2 -31 3 -7 -16 3 -42 23 -26 20 -61 44 -76 52
-27 14 -29 13 -29 -6 0 -13 12 -25 36 -35 42 -17 159 -108 167 -130 4 -8 24
-23 47 -35 22 -11 40 -25 40 -30 0 -15 -9 -12 -75 20 -33 16 -67 30 -75 30 -8
0 10 -12 40 -27 30 -16 57 -31 58 -35 2 -5 11 -8 20 -9 10 0 12 -3 5 -5 -8 -4
-7 -13 5 -34 30 -51 4 -44 -65 20 -37 34 -81 68 -98 76 -30 14 -30 14 -5 -3
42 -28 161 -156 180 -194 11 -20 31 -52 47 -70 l27 -34 -28 25 c-15 14 -36 41
-46 60 -18 35 -60 80 -60 65 0 -4 -10 0 -22 11 -22 19 -23 19 -8 -1 8 -11 23
-31 34 -45 11 -14 -9 3 -44 36 -61 58 -98 84 -117 84 -4 0 6 -12 24 -26 18
-13 42 -38 53 -54 l20 -29 -30 15 c-16 9 -38 14 -47 12 -11 -2 12 -25 67 -68
92 -71 130 -107 130 -123 0 -7 -5 -6 -12 1 -7 7 -17 12 -23 12 -5 0 8 -16 30
-35 32 -28 36 -34 20 -34 -11 -1 -44 13 -74 29 -30 17 -56 28 -58 26 -2 -2 14
-19 36 -39 41 -37 77 -84 70 -92 -2 -2 -36 5 -74 16 -42 11 -97 18 -140 18
l-70 -2 89 -8 c58 -6 106 -17 140 -33 l51 -24 -45 -1 c-25 0 -70 6 -100 14
-97 26 -108 14 -15 -16 49 -17 94 -34 100 -38 5 -5 29 -12 53 -16 23 -4 42
-10 42 -15 0 -4 -16 -4 -35 0 -44 10 -45 3 -2 -15 l32 -14 -35 0 c-19 0 -68 8
-109 19 -84 22 -91 23 -91 12 0 -14 190 -64 217 -57 14 3 22 2 19 -3 -5 -9
-44 -17 -156 -30 -54 -7 -55 -7 -20 -15 31 -7 33 -9 17 -18 -11 -6 -47 -13
-80 -16 -85 -8 -107 -22 -37 -24 30 -1 45 -4 33 -6 -12 -2 -26 -10 -32 -17 -9
-10 7 -9 63 4 40 10 83 23 94 29 11 6 33 11 49 10 25 -1 26 -2 6 -7 -13 -4
-31 -14 -41 -23 -11 -9 -54 -24 -96 -33 -42 -10 -76 -21 -76 -25 0 -9 83 -21
146 -21 23 0 61 7 84 15 24 8 45 14 47 12 2 -2 -50 -24 -114 -49 -131 -51
-159 -75 -73 -64 35 5 50 4 45 -4 -3 -5 -27 -10 -53 -10 -46 -1 -148 -38 -107
-39 11 -1 37 4 58 10 22 6 41 8 44 6 2 -3 -21 -24 -51 -47 -31 -24 -55 -44
-53 -47 2 -2 28 8 58 21 54 25 144 42 134 26 -3 -5 -33 -26 -67 -47 l-62 -38
50 -6 49 -6 -50 -1 c-45 -1 -322 -39 -353 -48 -7 -2 -10 -9 -6 -15 4 -7 23 -9
53 -5 156 21 258 25 311 12 45 -10 50 -14 30 -18 -14 -3 -59 -13 -100 -22 -41
-10 -111 -18 -155 -18 l-80 -1 60 -10 c56 -10 175 -1 255 18 20 5 22 4 9 -4
-9 -6 -70 -20 -135 -31 -65 -12 -123 -26 -128 -30 -12 -12 35 -30 82 -31 27
-1 21 -4 -23 -9 -33 -5 -63 -6 -67 -4 -13 8 -268 -19 -268 -28 0 -13 39 -10
237 16 l33 5 -28 -26 c-21 -20 -23 -23 -7 -18 31 10 206 52 245 59 45 8 -44
-25 -150 -55 -41 -11 -85 -27 -98 -35 -26 -17 -31 -39 -4 -25 48 26 352 102
352 88 0 -6 -154 -72 -280 -121 -95 -36 -166 -73 -158 -82 3 -2 34 9 69 25 62
29 379 142 379 135 0 -8 -80 -43 -134 -58 -76 -22 -281 -109 -268 -114 6 -2
50 13 99 33 82 34 288 105 302 105 3 -1 -7 -12 -24 -26 l-30 -25 30 6 c17 3
23 2 15 -2 -8 -3 -69 -38 -135 -78 -66 -39 -150 -86 -187 -105 -37 -18 -65
-36 -63 -41 3 -4 -13 -13 -35 -19 -22 -6 -40 -13 -40 -16 0 -8 59 5 95 21 17
7 50 16 75 20 24 3 47 10 50 16 4 5 56 18 116 28 60 10 118 22 129 26 18 6 18
5 3 -5 -10 -6 -64 -26 -120 -45 -57 -18 -119 -40 -138 -48 -19 -8 -90 -30
-157 -48 -68 -17 -123 -36 -123 -41 0 -10 16 -7 210 49 211 61 391 99 250 53
-39 -13 -48 -18 -30 -19 25 -2 25 -2 -5 -18 -16 -9 -59 -25 -95 -35 -59 -16
-39 -18 25 -2 21 5 26 4 20 -6 -6 -9 -3 -10 15 0 12 6 24 9 28 6 3 -3 1 -6 -4
-6 -5 0 -20 -9 -34 -20 l-25 -20 37 15 c21 8 41 15 45 15 25 0 -42 -30 -265
-119 -276 -110 -356 -147 -347 -161 6 -10 28 -4 170 50 176 68 256 91 272 79
8 -7 44 -10 97 -7 47 2 83 1 80 -4 -3 -4 -38 -8 -77 -9 l-72 0 43 -17 c23 -9
42 -19 42 -23 0 -9 -39 -34 -119 -75 -36 -20 -70 -40 -76 -46 -7 -7 -7 -9 0
-6 6 3 42 20 80 38 39 18 75 35 80 38 6 4 -14 -21 -43 -55 -40 -46 -74 -72
-133 -103 -43 -22 -81 -45 -84 -50 -8 -14 22 -1 68 27 21 13 79 44 128 69 50
25 114 59 142 76 29 17 65 31 82 33 16 1 39 5 50 10 11 4 -5 -10 -37 -33 -31
-22 -104 -77 -162 -121 -59 -45 -110 -81 -114 -81 -14 0 -105 -61 -99 -66 3
-3 36 10 73 29 84 42 144 68 144 61 0 -3 -21 -27 -46 -54 -26 -28 -42 -50 -37
-50 6 0 32 25 58 55 40 47 106 95 131 95 4 0 -10 -15 -32 -34 -39 -33 -161
-181 -177 -214 -9 -18 2 -5 88 98 81 98 114 127 175 149 l55 21 -25 -21 c-14
-12 -38 -32 -55 -45 -48 -38 -12 -28 42 11 31 24 14 3 -52 -61 -110 -105 -109
-108 10 -25 87 61 85 55 -25 -68 -46 -50 -93 -90 -160 -131 -85 -53 -151 -98
-125 -87 6 2 72 41 147 85 124 74 256 137 265 128 2 -2 -10 -40 -27 -86 -17
-46 -29 -85 -26 -87 2 -3 20 27 40 65 20 37 50 84 67 103 28 31 29 32 11 4
-57 -89 -47 -96 18 -13 42 53 56 56 17 4 -13 -17 -27 -42 -30 -56 l-6 -24 22
25 c12 14 31 32 42 39 12 9 9 3 -7 -16 -31 -34 -37 -54 -10 -33 15 13 16 12 3
-3 -7 -10 -17 -16 -21 -13 -4 3 -16 -8 -25 -23 l-18 -27 24 20 c13 11 4 -1
-19 -27 -28 -29 -60 -81 -88 -144 -45 -99 -52 -127 -19 -77 36 55 184 193 200
187 19 -8 19 -2 -6 -69 -27 -72 -18 -82 15 -18 26 53 75 102 129 129 l32 17
-42 -45 c-41 -45 -78 -106 -70 -114 2 -3 15 11 28 31 25 36 78 77 117 89 31
10 28 1 -23 -79 -52 -82 -99 -174 -92 -181 4 -5 40 35 64 72 10 16 11 14 3
-11 -6 -16 -29 -47 -52 -67 -29 -26 -42 -46 -44 -67 -1 -16 -12 -48 -25 -70
-39 -71 -15 -53 40 28 29 43 82 107 119 142 l66 64 -67 -72 c-89 -95 -88 -107
5 -79 l46 13 -25 -54 c-40 -86 -20 -72 32 22 26 48 48 85 50 83 2 -2 -2 -22
-9 -43 -32 -95 -29 -117 10 -74 10 12 32 30 47 41 l29 21 -17 -33 c-9 -18 -45
-74 -80 -124 -76 -111 -119 -185 -112 -192 3 -3 17 15 32 40 26 45 27 45 51
30 l24 -16 -22 -37 c-12 -20 -28 -44 -36 -53 -8 -10 -11 -18 -6 -18 5 1 28 30
51 65 23 35 35 61 27 58 -8 -3 -23 2 -34 12 -19 17 -18 19 30 89 27 39 66 87
87 106 21 19 29 25 19 13 -9 -12 -19 -32 -21 -45 -4 -32 -33 -108 -48 -127 -9
-11 -9 -13 0 -8 7 4 27 28 44 52 39 55 62 67 47 25 -5 -16 -16 -34 -23 -40 -8
-6 -12 -17 -9 -25 7 -16 -19 -77 -56 -136 -39 -59 -38 -65 6 -39 19 12 37 20
40 18 12 -13 -15 -43 -82 -90 -41 -28 -73 -52 -71 -54 2 -2 25 7 52 21 l48 26
-18 -28 c-10 -15 -24 -46 -30 -68 -12 -39 -14 -40 -68 -50 -68 -12 -90 -30
-27 -22 25 3 54 9 63 13 9 3 17 1 17 -4 0 -6 -26 -18 -57 -27 -32 -8 -69 -20
-82 -26 -44 -18 -16 -18 54 2 38 10 74 18 80 16 5 -2 16 3 23 12 11 14 12 13
3 -5 -6 -12 -24 -27 -41 -32 -35 -13 -39 -24 -7 -22 45 4 50 0 24 -20 -20 -16
-40 -20 -105 -20 -50 0 -84 -4 -88 -12 -5 -8 4 -9 32 -5 21 4 63 4 93 0 51 -6
52 -7 30 -20 -24 -14 -24 -14 6 -8 l30 6 -43 -41 c-40 -39 -45 -41 -90 -35
-51 7 -41 -8 15 -19 27 -6 37 -2 82 38 59 52 79 61 35 15 -40 -42 -80 -65
-141 -79 -29 -6 -53 -16 -53 -21 0 -5 -11 -9 -25 -9 -14 0 -25 -5 -25 -11 0
-6 8 -8 18 -6 42 12 112 17 138 11 l29 -8 -40 -12 c-34 -10 -37 -13 -20 -20
11 -4 26 -16 33 -25 7 -10 19 -16 27 -13 28 11 15 -16 -17 -36 -18 -11 -26
-20 -18 -20 9 0 21 5 28 12 7 7 12 8 12 3 0 -6 5 -3 11 5 7 10 9 11 7 2 -2 -8
-7 -13 -11 -13 -4 1 -16 -8 -28 -20 -11 -11 -27 -18 -36 -15 -8 3 -24 -1 -36
-9 -21 -15 -21 -15 6 -15 15 0 44 7 64 15 30 13 34 13 23 1 -6 -8 -27 -20 -46
-26 -45 -15 -37 -25 10 -12 l35 10 -16 -24 c-18 -28 -39 -31 -65 -7 -19 17
-19 16 -12 -12 4 -17 11 -39 15 -50 7 -18 8 -18 8 5 1 23 5 25 46 25 27 0 47
-5 50 -12 7 -20 -34 -41 -124 -62 -46 -11 -86 -22 -88 -25 -7 -7 61 4 122 20
27 7 51 11 53 10 1 -2 -20 -13 -48 -25 -37 -16 -86 -24 -183 -32 -141 -10
-192 -19 -223 -38 -17 -11 -17 -12 6 -6 73 17 145 25 237 25 78 0 115 5 155
20 28 10 47 15 41 9 -5 -5 -43 -21 -82 -34 -61 -21 -92 -25 -192 -25 -73 0
-119 -4 -119 -10 0 -6 47 -10 122 -10 l121 0 -29 -26 c-21 -19 -24 -24 -9 -19
55 21 145 41 145 33 0 -12 -53 -33 -146 -58 -86 -22 -129 -38 -122 -45 5 -5
189 38 232 55 38 14 45 6 15 -21 -13 -11 -17 -18 -9 -14 8 4 4 -3 -10 -14 -14
-11 -28 -21 -31 -21 -10 0 -120 -68 -140 -86 -29 -26 -16 -27 25 -4 26 16 44
20 67 15 39 -9 35 -12 -84 -66 -53 -24 -93 -45 -87 -47 6 -2 53 10 106 28 53
17 98 29 101 26 3 -2 -17 -16 -44 -31 -58 -31 -32 -27 55 10 35 15 66 24 69
22 10 -10 -36 -97 -51 -97 -9 0 -16 -4 -16 -10 0 -5 -16 -10 -36 -10 -41 0
-37 -19 4 -21 16 -1 1 -7 -37 -16 -40 -10 -59 -18 -51 -23 9 -5 -10 -13 -49
-21 -34 -6 -64 -16 -67 -20 -7 -12 11 -11 85 6 47 12 66 13 71 4 5 -6 17 -8
31 -4 21 5 19 2 -11 -25 -27 -24 -30 -30 -13 -25 45 12 33 -16 -17 -39 -28
-13 -47 -27 -42 -30 6 -3 16 -4 24 -2 33 12 88 15 88 6 0 -6 17 -10 38 -10 20
0 48 -3 61 -7 21 -5 18 -8 -25 -19 -38 -10 -225 -34 -267 -34 -5 0 -5 -4 -2
-10 4 -6 -43 -10 -132 -11 -105 -1 -130 -3 -103 -10 19 -5 127 -8 240 -5 260
6 172 -8 -150 -23 -235 -11 -325 -19 -316 -28 8 -8 955 -7 1111 1 83 5 148 6
145 3 -3 -4 -57 -9 -120 -11 -138 -7 -242 -14 -330 -23 -63 -7 -64 -7 -25 -14
25 -4 -5 -7 -83 -8 -79 0 -121 -5 -117 -11 4 -6 86 -10 212 -10 183 0 204 2
193 15 -7 9 -11 17 -9 19 8 8 165 8 222 1 43 -6 57 -11 53 -21 -5 -12 224 -14
1415 -14 1245 0 1420 2 1416 15 -8 18 7 27 63 40 29 7 45 16 45 25 0 12 -28
16 -160 21 -191 7 -202 9 -150 20 22 4 166 9 320 10 215 2 257 4 180 9 -55 4
-142 8 -193 9 -70 1 -93 4 -90 14 3 6 24 15 49 18 l44 6 -45 3 c-37 2 -39 4
-15 7 16 3 33 9 36 15 4 6 111 12 273 15 146 4 266 9 266 14 0 4 -27 10 -60
14 -50 6 -60 10 -60 26 0 16 -8 19 -52 20 l-53 2 65 7 c36 4 199 11 362 15
174 4 295 11 292 16 -3 6 -101 7 -232 4 -512 -13 -681 -14 -687 -5 -3 4 9 18
25 30 45 32 29 37 -17 6 -44 -30 -51 -22 -34 40 6 21 9 40 6 42 -2 2 -30 -12
-62 -31 -62 -39 -82 -34 -36 9 15 14 21 22 13 18 -10 -5 -8 0 4 15 11 12 26
19 33 16 8 -2 12 -1 9 3 -3 5 15 29 40 53 25 24 55 58 66 74 l21 30 -34 -31
c-19 -17 -61 -48 -94 -69 -33 -21 -67 -43 -75 -49 -13 -10 -1 6 79 105 21 26
22 29 6 35 -10 4 -33 -5 -62 -25 l-45 -32 7 33 c4 18 22 49 40 68 33 35 61 80
57 91 -1 4 7 5 17 2 10 -3 22 0 25 6 4 6 0 11 -11 11 -14 1 -11 7 15 29 44 38
40 49 -5 13 -80 -62 -99 -43 -33 33 22 25 40 49 40 52 0 6 -1 5 -69 -47 -43
-33 -44 -34 -26 -7 10 15 38 39 62 54 24 14 42 27 40 29 -6 6 -97 -36 -131
-59 l-29 -21 19 34 c21 37 76 97 114 123 l25 18 -25 -5 c-14 -2 -43 -7 -65
-11 l-40 -5 45 21 c25 12 65 30 89 41 24 10 41 21 38 24 -2 3 -29 -6 -58 -19
-30 -13 -72 -26 -94 -30 -35 -5 -30 -1 44 36 61 30 78 43 63 45 -28 4 -28 18
-1 32 31 17 14 25 -21 10 -17 -7 -33 -10 -36 -7 -9 9 52 37 81 37 14 0 25 5
25 10 0 6 -13 8 -30 5 -39 -7 -38 -2 6 24 59 35 31 36 -45 1 -38 -18 -75 -30
-82 -28 -7 2 16 16 49 31 70 30 78 41 27 35 -26 -3 -32 -1 -24 8 7 9 4 13 -11
16 -20 3 -18 7 23 48 47 46 54 61 18 39 -30 -19 -37 -4 -17 38 14 29 20 34 27
22 7 -10 9 -2 7 26 -2 22 -7 38 -13 35 -5 -3 -9 -12 -8 -20 1 -8 -11 -25 -27
-38 -21 -16 -28 -18 -26 -7 1 8 11 22 22 30 25 19 5 19 -23 0 -34 -24 -35 -2
-2 38 36 43 33 47 -7 12 -49 -42 -47 -28 6 42 55 73 59 102 5 37 -19 -23 -46
-49 -59 -58 -24 -15 -25 -15 -19 1 3 10 15 28 26 41 11 12 17 22 13 22 -4 0 2
12 13 26 24 30 28 52 7 35 -8 -7 -24 -14 -36 -16 -13 -2 -30 -11 -40 -20 -22
-20 -31 -19 -23 3 6 14 4 15 -9 4 -32 -26 -26 5 13 73 44 75 26 69 -27 -10
-38 -55 -49 -36 -13 22 12 19 19 36 16 39 -2 3 -15 -11 -27 -31 -12 -20 -24
-34 -26 -32 -10 9 39 88 66 107 36 26 33 39 -3 16 -22 -15 -26 -15 -46 1 l-22
18 56 29 c66 33 67 48 0 17 -57 -27 -75 -27 -75 0 0 13 5 19 13 16 6 -3 21 -8
32 -12 19 -6 19 -6 3 8 -27 22 -21 32 7 13 14 -9 25 -14 25 -11 0 11 -24 30
-52 42 -16 7 -28 17 -28 23 0 14 10 13 60 -5 24 -8 45 -13 48 -10 7 7 3 9 -43
27 l-39 15 32 8 c30 6 47 28 20 24 -32 -4 -50 3 -80 31 -28 25 -30 28 -10 23
31 -8 28 12 -7 36 -23 17 -30 31 -35 74 -4 29 -4 61 0 71 6 17 8 16 20 -5 7
-13 13 -33 14 -44 0 -32 20 -95 29 -95 5 0 3 17 -5 37 -18 52 -18 74 1 49 8
-10 12 -23 8 -29 -3 -6 -1 -7 5 -4 14 10 100 -155 148 -282 21 -57 40 -99 42
-93 2 6 -15 59 -37 118 -39 103 -40 110 -31 168 14 85 13 93 -11 99 -16 4 -19
2 -13 -11 12 -26 17 -119 7 -107 -13 13 -35 114 -28 126 3 4 -2 23 -11 41 -16
30 -16 32 -1 19 29 -23 19 6 -14 44 -28 31 -29 35 -11 35 13 0 31 -17 51 -47
17 -27 44 -63 61 -82 16 -18 30 -44 30 -57 0 -13 4 -24 10 -24 12 0 3 46 -22
119 -22 65 -17 77 11 24 11 -21 20 -31 21 -23 0 8 -9 30 -21 49 l-20 33 27
-21 c15 -11 31 -21 37 -21 5 0 32 -16 59 -36 27 -20 51 -34 54 -31 3 3 -15 19
-39 36 -34 23 -44 36 -40 50 4 16 -7 26 -56 50 -34 17 -61 34 -61 36 0 9 72
-24 112 -50 21 -14 41 -25 44 -25 11 0 -66 53 -127 88 -32 18 -60 40 -64 49
-5 14 -2 14 17 -3 28 -26 88 -55 98 -49 4 3 19 -6 34 -20 14 -13 26 -22 26
-20 0 3 21 -9 47 -25 53 -34 71 -32 27 2 -28 22 -114 95 -124 106 -3 2 5 0 17
-7 41 -21 38 -10 -12 35 -35 32 -40 38 -15 21 19 -13 51 -31 71 -40 20 -9 42
-23 49 -32 7 -8 16 -13 20 -10 7 4 75 -71 169 -185 11 -14 20 -20 21 -15 0 6
-47 65 -104 132 -57 67 -109 131 -116 142 -6 12 -16 18 -22 15 -7 -4 -8 -2 -4
5 4 6 3 18 -4 26 -6 8 -7 16 -2 19 6 3 15 -1 22 -10 11 -12 15 -12 22 -2 6 10
21 0 54 -37 l46 -50 -21 41 c-11 23 -32 57 -48 75 -22 27 -23 30 -4 14 13 -11
41 -49 62 -85 36 -61 109 -145 109 -125 0 4 -11 22 -24 40 -21 27 -86 158 -86
173 0 4 17 -10 38 -30 20 -20 53 -43 72 -52 34 -16 34 -16 12 1 -13 10 -40 33
-60 51 l-37 34 35 -25 c56 -40 104 -61 108 -49 2 7 15 9 33 5 40 -8 36 3 -9
26 -32 16 -68 53 -132 134 -14 18 -13 18 25 2 22 -9 46 -19 53 -22 7 -3 20
-20 28 -37 13 -29 14 -30 9 -4 l-5 27 82 -35 c46 -19 157 -73 248 -120 91 -46
154 -75 140 -65 -41 33 -305 165 -450 226 -74 32 -138 60 -142 64 -4 3 -14 23
-23 43 -15 36 -14 38 4 35 10 -2 25 -8 33 -15 12 -9 14 -6 13 22 -2 26 1 33
12 29 10 -4 11 -8 4 -13 -8 -4 -1 -20 18 -47 39 -54 56 -65 47 -29 -8 31 8 28
32 -6 7 -10 18 -18 24 -18 6 0 6 6 -2 15 -24 28 -2 27 107 -8 59 -20 178 -54
263 -77 85 -22 199 -54 253 -71 55 -17 101 -29 103 -26 2 2 -58 23 -134 46
-75 24 -143 44 -150 47 -10 3 -10 9 -2 26 l11 23 -18 -22 -18 -23 -105 29
c-173 47 -280 85 -280 100 0 8 6 11 15 7 8 -3 15 0 15 6 0 6 9 3 20 -7 30 -27
33 -13 5 28 -50 72 -22 72 88 1 90 -59 86 -42 -6 24 -41 29 -89 68 -107 87
l-33 34 114 -45 c63 -25 123 -48 134 -51 34 -9 -18 25 -103 68 -83 41 -80 51
7 19 29 -12 55 -19 58 -16 2 2 -12 9 -31 16 -20 6 -34 15 -31 20 3 5 -6 17
-20 28 l-25 20 31 6 c18 3 70 6 117 6 88 0 100 7 35 20 -81 17 -254 63 -250
67 3 2 24 0 48 -6 270 -60 380 -81 373 -70 -3 5 -31 16 -62 25 -31 9 -70 27
-87 39 -16 12 -48 28 -70 35 -22 7 -73 33 -112 57 -75 46 -97 66 -42 38 56
-29 41 -8 -18 25 -32 18 -53 35 -46 37 14 5 85 -30 102 -51 7 -9 17 -13 22
-11 4 3 27 -6 50 -20 22 -15 43 -24 46 -21 3 3 -10 13 -28 23 -36 19 -112 93
-104 101 2 3 33 -13 67 -35 91 -58 199 -116 205 -110 3 3 -10 13 -29 22 -92
47 -239 150 -276 194 -23 27 -38 51 -35 55 14 14 45 4 99 -30 43 -27 53 -31
45 -16 -6 11 -24 32 -42 46 -27 23 -28 26 -10 26 11 0 55 -18 97 -40 42 -23
78 -39 81 -37 2 2 -21 17 -51 33 -30 16 -54 30 -52 31 2 2 66 -6 142 -17 76
-11 150 -20 163 -20 53 0 2 20 -128 49 -73 17 -149 39 -169 48 -19 9 -79 29
-131 44 -107 31 -97 37 22 14 43 -8 93 -15 110 -14 l32 1 -30 9 c-16 4 -66 16
-110 25 -44 9 -74 19 -67 21 6 3 9 10 5 16 -4 8 -1 7 9 -1 19 -15 51 -5 44 15
-4 10 -1 11 12 4 32 -17 258 -81 283 -80 15 1 6 6 -26 16 -123 35 -153 46
-197 75 -27 16 -48 33 -48 37 0 4 18 14 40 21 30 10 80 11 207 6 93 -4 180 -9
196 -12 20 -5 27 -2 27 9 0 11 -13 18 -42 22 -36 4 -342 35 -355 35 -2 0 -2 4
2 9 3 5 50 13 105 16 55 4 100 12 100 17 0 6 -7 7 -16 4 -8 -3 -79 -8 -157
-11 -164 -5 -162 2 4 15 l114 9 -155 -4 c-123 -3 -140 -1 -85 5 39 5 95 13
125 18 52 9 53 10 15 11 -22 1 -62 12 -90 25 l-50 23 80 7 c125 11 120 14 -35
16 -172 3 -136 18 50 21 63 1 106 3 95 5 -42 9 -101 28 -112 37 -20 14 -124
62 -167 77 -33 11 -36 14 -22 22 36 20 122 -11 241 -88 30 -19 55 -32 55 -29
0 10 -145 98 -190 116 -32 13 -38 18 -22 19 12 0 50 -12 83 -26 34 -14 63 -23
66 -20 7 7 -104 56 -125 56 -40 0 11 23 79 35 l74 13 -75 1 c-41 0 -97 -6
-124 -14 -27 -8 -54 -15 -60 -15 -17 0 9 21 51 41 l38 19 -53 -3 c-28 -1 -52
0 -52 3 0 8 58 44 124 79 68 36 60 40 -16 10 -29 -12 -62 -23 -73 -24 -11 -2
-29 -6 -40 -10 -11 -4 -5 3 13 15 17 12 32 24 32 27 0 3 -24 2 -52 -1 l-53 -7
40 25 c69 43 72 46 37 34 -56 -18 -47 0 13 27 32 14 56 28 53 31 -4 3 -29 -4
-56 -16 -28 -12 -61 -20 -74 -18 -21 3 -20 5 17 29 22 15 49 37 60 50 12 14
13 19 4 11 -9 -7 -24 -10 -33 -6 -9 3 -16 1 -16 -5 0 -6 -7 -8 -17 -4 -10 4
-14 2 -10 -4 7 -11 -22 -28 -31 -18 -3 3 1 5 9 5 12 0 12 2 0 9 -10 7 -5 16
24 42 20 19 44 47 51 62 l15 28 -42 -31 c-23 -16 -46 -30 -50 -30 -5 0 1 20
13 45 16 33 19 48 11 56 -8 8 -17 5 -32 -10 -28 -28 -51 -27 -51 2 0 19 -6 16
-45 -25 -66 -69 -55 -28 13 46 31 34 95 109 142 165 124 150 133 161 128 161
-3 0 -67 -70 -144 -155 -76 -86 -151 -162 -167 -170 -26 -13 -25 -11 12 31 21
25 58 75 80 112 23 37 48 78 57 92 9 14 -17 -9 -57 -50 -41 -41 -65 -64 -54
-51 20 24 20 24 0 17 -12 -4 -4 8 21 31 22 21 33 33 25 27 -43 -30 -41 -22 5
27 28 30 72 83 98 119 38 52 40 56 9 20 -21 -24 -71 -78 -112 -120 -73 -74
-73 -58 -1 30 21 25 58 77 84 115 25 39 54 81 63 95 l17 25 -30 -26 c-25 -23
-139 -99 -184 -124 -15 -8 48 64 85 96 11 10 15 18 9 19 -6 0 -19 -9 -30 -21
-17 -19 -65 -49 -79 -49 -9 0 14 39 67 115 45 64 22 47 -29 -21 l-21 -29 18
75 c34 133 89 250 140 295 12 11 26 29 32 40 6 11 -9 1 -34 -22 -24 -24 -68
-86 -98 -138 -64 -114 -91 -142 -60 -66 25 65 47 107 72 144 11 16 18 30 16
33 -3 2 -17 -13 -32 -35 -15 -22 -37 -48 -49 -58 l-21 -18 21 30 c24 35 63
111 63 122 0 4 -16 -16 -35 -45 -20 -28 -40 -52 -45 -52 -6 0 -10 18 -10 40 0
28 8 48 28 72 45 54 57 76 18 34 -21 -23 -36 -33 -37 -25 0 8 -1 115 0 239 0
208 -1 222 -15 185 -11 -31 -13 -33 -9 -10 12 71 25 223 34 395 9 160 14 199
41 289 33 110 36 150 5 53 -17 -50 -20 -54 -23 -28 -3 26 8 89 24 130 3 9 2
16 -3 16 -12 0 -98 -209 -117 -283 -8 -33 -18 -62 -21 -65 -14 -14 42 179 70
243 l17 40 -28 -25 -28 -25 19 30 c29 46 45 79 45 93 0 26 -17 9 -49 -50z
m-3716 -146 c36 -53 31 -64 -6 -14 -17 24 -33 41 -35 39 -2 -2 3 -21 12 -43
20 -49 7 -38 -16 14 -17 36 -16 38 1 39 12 1 29 -13 44 -35z m3743 -33 c-6
-35 -13 -58 -15 -52 -5 14 17 127 23 121 2 -3 -1 -33 -8 -69z m-3877 -121 c-6
-54 -12 -122 -12 -151 -2 -35 -4 -42 -7 -22 -2 17 2 98 9 180 8 83 15 137 17
121 2 -16 -1 -73 -7 -128z m3733 51 c-54 -68 -85 -94 -40 -33 31 42 77 94 84
94 2 0 -18 -27 -44 -61z m51 11 c-14 -27 -28 -50 -30 -50 -3 0 6 23 20 50 14
28 28 50 30 50 3 0 -6 -22 -20 -50z m-3675 -53 c0 -7 -8 -3 -16 8 -8 11 -20
19 -25 18 -5 -2 -9 7 -9 18 0 21 1 21 25 -5 14 -15 25 -32 25 -39z m3570 20
c0 -2 -10 -12 -22 -23 l-23 -19 19 23 c18 21 26 27 26 19z m-3410 -52 c13 -14
21 -25 18 -25 -2 0 -15 11 -28 25 -13 14 -21 25 -18 25 2 0 15 -11 28 -25z
m3370 1 c0 -2 -8 -10 -17 -17 -16 -13 -17 -12 -4 4 13 16 21 21 21 13z m-3495
-88 c21 -43 22 -48 6 -28 -20 24 -44 80 -36 80 3 0 16 -24 30 -52z m3538 29
c-80 -99 -197 -237 -201 -237 -3 0 2 8 10 18 8 9 56 68 107 130 51 61 95 112
98 112 2 0 -4 -10 -14 -23z m-3338 -57 c27 -27 47 -50 44 -50 -3 0 -27 23 -54
50 -27 28 -47 50 -44 50 3 0 27 -22 54 -50z m86 -96 c32 -20 59 -39 59 -41 0
-5 -110 56 -124 69 -23 19 10 5 65 -28z m3139 -17 c0 -2 -10 -12 -22 -23 l-23
-19 19 23 c18 21 26 27 26 19z m-112 -47 c-13 -22 -33 -53 -46 -68 -14 -16
-10 -5 10 28 19 30 38 61 42 68 4 6 9 12 12 12 2 0 -6 -18 -18 -40z m-2912
-11 c3 -6 -5 -3 -20 6 -14 10 -26 19 -26 22 0 7 39 -17 46 -28z m2904 -62 c0
-1 -26 -27 -57 -57 l-58 -55 55 58 c50 53 60 62 60 54z m-2790 -72 c19 -22 70
-77 114 -122 44 -46 78 -83 74 -83 -3 0 -34 29 -69 65 -34 36 -64 63 -66 61
-3 -2 7 -27 21 -55 15 -28 24 -51 21 -51 -2 0 -14 19 -26 43 -12 23 -35 57
-53 75 -19 20 -24 31 -13 27 27 -11 21 1 -25 52 -24 25 -36 42 -27 37 9 -5 31
-27 49 -49z m2771 17 c-5 -10 -18 -25 -28 -33 -12 -10 -11 -5 6 19 24 35 38
43 22 14z m426 -24 c-3 -7 -5 -2 -5 12 0 14 2 19 5 13 2 -7 2 -19 0 -25z
m-3306 -5 c13 -16 12 -17 -3 -4 -10 7 -18 15 -18 17 0 8 8 3 21 -13z m2844
-49 c-70 -59 -105 -85 -105 -80 0 7 119 106 128 106 4 -1 -6 -12 -23 -26z
m418 -94 c4 -71 3 -92 -3 -65 -9 39 -14 182 -6 174 2 -2 6 -51 9 -109z m-3172
23 c13 -16 12 -17 -3 -4 -10 7 -18 15 -18 17 0 8 8 3 21 -13z m2530 -20 c-12
-20 -14 -14 -5 12 4 9 9 14 11 11 3 -2 0 -13 -6 -23z m279 -8 c0 -2 -10 -9
-22 -15 -22 -11 -22 -10 -4 4 21 17 26 19 26 11z m412 -200 l-9 -120 -1 120
c-1 66 2 138 6 160 l7 40 3 -40 c1 -22 -2 -94 -6 -160z m-2941 108 c13 -16 12
-17 -3 -4 -10 7 -18 15 -18 17 0 8 8 3 21 -13z m2866 -65 c-3 -8 -6 -5 -6 6
-1 11 2 17 5 13 3 -3 4 -12 1 -19z m-2836 -40 c31 -44 15 -33 -22 15 -19 23
-26 36 -16 28 10 -8 27 -27 38 -43z m-1014 -91 c-2 -23 -3 -1 -3 48 0 50 1 68
3 42 2 -26 2 -67 0 -90z m3073 130 c0 -2 -17 -19 -37 -38 l-38 -34 34 38 c33
34 41 42 41 34z m-1918 -137 l30 -45 -31 35 c-31 34 -71 101 -71 117 0 4 10
-8 22 -27 11 -19 34 -55 50 -80z m2128 86 c0 -2 -8 -10 -17 -17 -16 -13 -17
-12 -4 4 13 16 21 21 21 13z m-3060 -19 c0 -2 -20 -18 -45 -36 -25 -18 -45
-30 -45 -27 0 4 81 66 87 66 2 0 3 -1 3 -3z m1114 -23 c3 -8 2 -12 -4 -9 -6 3
-10 10 -10 16 0 14 7 11 14 -7z m283 -76 c-2 -18 -4 -4 -4 32 0 36 2 50 4 33
2 -18 2 -48 0 -65z m454 -19 c29 -57 23 -58 -16 -3 -19 27 -35 53 -35 58 0 16
32 -18 51 -55z m-681 2 c10 -22 25 -41 32 -43 9 -3 9 -6 0 -12 -7 -4 -21 11
-37 44 -14 27 -23 50 -20 50 2 0 14 -18 25 -39z m-77 -1 c3 -11 1 -18 -4 -14
-5 3 -9 12 -9 20 0 20 7 17 13 -6z m684 -72 c-3 -7 -5 -2 -5 12 0 14 2 19 5
13 2 -7 2 -19 0 -25z m-542 -18 c8 -16 15 -32 15 -37 0 -10 -25 27 -33 50 -10
27 1 20 18 -13z m220 -8 c-6 -7 -35 18 -35 31 0 5 9 2 20 -8 11 -10 18 -20 15
-23z m-1706 -6 c0 -14 -2 -16 -6 -6 -3 8 -10 21 -16 28 -7 9 -6 11 7 6 9 -3
16 -16 15 -28z m28 -33 c-3 -10 -5 -4 -5 12 0 17 2 24 5 18 2 -7 2 -21 0 -30z
m483 22 c0 -2 -10 -9 -22 -15 -22 -11 -22 -10 -4 4 21 17 26 19 26 11z m847
-17 c-3 -8 -6 -5 -6 6 -1 11 2 17 5 13 3 -3 4 -12 1 -19z m1273 7 c11 -13 10
-14 -4 -9 -9 3 -16 10 -16 15 0 13 6 11 20 -6z m-2626 -114 c9 -35 15 -65 13
-67 -6 -7 -53 123 -49 135 7 22 19 -2 36 -68z m3971 -142 c-20 -61 -23 -66
-19 -30 6 45 32 116 39 109 3 -2 -7 -38 -20 -79z m-3896 -59 c1 -8 -10 9 -24
38 -14 30 -25 57 -25 60 1 13 49 -83 49 -98z m1101 -12 c18 -29 25 -46 18 -38
-18 19 -61 90 -55 90 3 0 20 -24 37 -52z m-425 -38 c10 -11 16 -20 13 -20 -3
0 -13 9 -23 20 -10 11 -16 20 -13 20 3 0 13 -9 23 -20z m3284 -49 c-12 -17
-45 -44 -73 -60 -49 -30 -49 -30 -16 -4 19 16 50 43 70 60 43 40 46 41 19 4z
m-3229 -6 c13 -14 21 -25 18 -25 -2 0 -15 11 -28 25 -13 14 -21 25 -18 25 2 0
15 -11 28 -25z m-626 -16 c20 -12 36 -23 36 -25 0 -5 -44 18 -70 35 -27 19 -2
11 34 -10z m956 -9 c6 -11 8 -20 6 -20 -3 0 -10 9 -16 20 -6 11 -8 20 -6 20 3
0 10 -9 16 -20z m-319 -37 c13 -16 12 -17 -3 -4 -10 7 -18 15 -18 17 0 8 8 3
21 -13z m-120 -40 c13 -16 12 -17 -3 -4 -17 13 -22 21 -14 21 2 0 10 -8 17
-17z m179 -33 c17 -22 30 -40 27 -40 -3 0 -22 21 -43 47 -21 26 -33 44 -27 40
6 -4 26 -25 43 -47z m3090 37 c0 -2 -10 -12 -22 -23 l-23 -19 19 23 c18 21 26
27 26 19z m-150 -51 c0 -2 -12 -11 -27 -20 l-28 -17 24 20 c23 21 31 25 31 17z
m-3759 -43 c13 -16 12 -17 -3 -4 -10 7 -18 15 -18 17 0 8 8 3 21 -13z m3899
-18 c0 -2 -10 -9 -22 -15 -22 -11 -22 -10 -4 4 21 17 26 19 26 11z m-50 -30
c0 -2 -18 -14 -40 -25 -22 -11 -40 -18 -40 -15 0 2 17 13 38 24 42 23 42 23
42 16z m-2070 -50 c0 -5 -5 -3 -10 5 -5 8 -10 20 -10 25 0 6 5 3 10 -5 5 -8
10 -19 10 -25z m1636 -10 c-11 -8 -25 -15 -30 -15 -6 1 0 7 14 15 32 19 40 18
16 0z m-3451 -13 c-3 -3 -11 0 -18 7 -9 10 -8 11 6 5 10 -3 15 -9 12 -12z
m3925 14 c0 -2 -8 -10 -17 -17 -16 -13 -17 -12 -4 4 13 16 21 21 21 13z
m-3790 -56 c8 -5 11 -10 5 -10 -5 0 -17 5 -25 10 -8 5 -10 10 -5 10 6 0 17 -5
25 -10z m108 -42 c29 -11 51 -22 49 -24 -5 -6 -137 46 -137 53 0 3 8 2 18 -2
9 -4 41 -16 70 -27z m3823 -5 c-5 -10 -17 -27 -26 -38 -16 -19 -17 -19 -3 5
26 46 29 50 34 50 3 0 0 -8 -5 -17z m-60 -35 c-16 -24 -46 -59 -67 -78 l-38
-35 34 41 c19 23 48 57 63 78 38 50 45 45 8 -6z m-3751 -39 c54 -50 22 -30
-41 25 -24 21 -35 33 -24 27 11 -6 40 -29 65 -52z m921 14 c13 -16 12 -17 -3
-4 -10 7 -18 15 -18 17 0 8 8 3 21 -13z m138 -36 c-2 -3 -15 10 -28 27 l-24
31 28 -27 c16 -15 27 -29 24 -31z m-726 6 c-7 -2 -19 -2 -25 0 -7 3 -2 5 12 5
14 0 19 -2 13 -5z m-593 -53 c-8 -6 -32 -15 -53 -21 -21 -5 -46 -13 -55 -16
-13 -5 -15 -3 -5 7 6 7 33 19 60 26 59 16 73 17 53 4z m171 -48 c-7 -2 -18 1
-23 6 -8 8 -4 9 13 5 13 -4 18 -8 10 -11z m899 -28 c0 -2 -9 0 -20 6 -11 6
-20 13 -20 16 0 2 9 0 20 -6 11 -6 20 -13 20 -16z m-817 9 c-7 -2 -19 -2 -25
0 -7 3 -2 5 12 5 14 0 19 -2 13 -5z m530 -30 c-13 -2 -33 -2 -45 0 -13 2 -3 4
22 4 25 0 35 -2 23 -4z m-775 -18 c3 -3 -41 -8 -177 -19 -28 -2 -39 -1 -30 5
8 5 28 9 44 9 17 0 37 5 45 10 12 8 107 4 118 -5z m690 8 c-10 -2 -26 -2 -35
0 -10 3 -2 5 17 5 19 0 27 -2 18 -5z m-545 -70 c-7 -2 -19 -2 -25 0 -7 3 -2 5
12 5 14 0 19 -2 13 -5z m-75 -10 c-15 -2 -42 -2 -60 0 -18 2 -6 4 27 4 33 0
48 -2 33 -4z m1046 -5 c51 -14 71 -29 25 -18 -39 9 -88 28 -75 29 5 1 27 -4
50 -11z m1631 -48 c-31 -34 -55 -63 -52 -66 3 -3 15 4 27 16 12 12 46 33 76
47 59 27 109 26 194 -4 53 -19 185 -95 219 -126 54 -51 111 -205 111 -302 0
-59 -31 -159 -66 -210 -13 -20 -24 -39 -24 -42 0 -15 45 37 71 82 16 28 29 45
29 39 0 -19 -57 -99 -100 -139 -24 -22 -40 -34 -36 -27 4 6 3 12 -2 12 -12 0
-33 -25 -27 -32 3 -3 -3 -11 -12 -19 -17 -13 -17 -13 -3 5 17 22 21 24 -90
-33 -82 -41 -87 -42 -162 -38 -77 4 -78 3 -78 -20 0 -31 -22 -25 -30 7 -4 15
-16 26 -34 31 -16 5 -32 13 -35 18 -4 6 -35 28 -69 51 -35 22 -60 44 -57 49 3
5 1 13 -5 16 -18 11 -67 118 -79 173 -6 29 -11 72 -11 95 0 46 39 138 91 214
17 25 25 44 18 41 -12 -4 -69 -78 -127 -164 -7 -11 -4 -1 7 21 30 63 101 154
206 264 54 55 100 101 103 101 3 0 -21 -27 -53 -60z m251 19 c65 -20 164 -64
164 -74 0 -2 -28 9 -63 25 -34 15 -88 36 -120 45 -31 9 -57 18 -57 21 0 6 3 6
76 -17z m-1826 -29 c28 -11 55 -18 60 -15 11 7 96 -30 143 -62 63 -44 33 -38
-57 11 -48 26 -86 45 -86 42 0 -2 40 -28 90 -56 102 -60 174 -130 189 -186 43
-162 42 -282 -4 -359 -34 -59 -71 -88 -159 -125 -43 -19 -74 -36 -68 -38 7 -2
37 8 67 22 31 14 53 21 50 17 -2 -5 -33 -21 -68 -36 -37 -16 -67 -37 -73 -49
-12 -27 -28 -23 -32 7 -3 23 -8 25 -86 31 -94 8 -252 47 -310 77 -48 25 -122
86 -143 119 -9 14 12 -1 46 -33 34 -31 81 -67 104 -78 l42 -20 -30 23 c-67 52
-107 93 -141 149 -28 47 -36 72 -41 127 -10 116 3 177 45 224 51 56 169 151
221 178 109 55 161 61 241 30z m195 -40 c10 -11 16 -20 13 -20 -3 0 -13 9 -23
20 -10 11 -16 20 -13 20 3 0 13 -9 23 -20z m-1165 0 c-8 -5 -22 -9 -30 -9 -10
0 -8 3 5 9 27 12 43 12 25 0z m670 6 c0 -2 -25 -22 -55 -45 -31 -23 -90 -72
-133 -107 l-77 -66 70 68 c82 79 195 166 195 150z m-822 -43 c-10 -2 -26 -2
-35 0 -10 3 -2 5 17 5 19 0 27 -2 18 -5z m-65 -10 c-7 -2 -19 -2 -25 0 -7 3
-2 5 12 5 14 0 19 -2 13 -5z m3577 -43 c0 -15 -5 -12 -26 11 -19 22 -19 22 4
10 12 -6 22 -16 22 -21z m-250 -70 c17 -26 30 -51 30 -55 0 -5 -14 13 -31 41
-17 27 -43 62 -58 79 l-26 30 28 -24 c15 -14 41 -46 57 -71z m121 53 c13 -16
12 -17 -3 -4 -17 13 -22 21 -14 21 2 0 10 -8 17 -17z m818 -8 c45 -14 81 -28
81 -31 0 -11 -86 9 -135 31 -67 31 -44 31 54 0z m-4241 -2 c-10 -2 -26 -2 -35
0 -10 3 -2 5 17 5 19 0 27 -2 18 -5z m4092 -3 c22 -7 21 -8 -12 -9 -20 -1 -40
4 -43 9 -7 12 19 12 55 0z m-4172 -7 c-10 -2 -26 -2 -35 0 -10 3 -2 5 17 5 19
0 27 -2 18 -5z m652 -38 c-24 -25 -46 -45 -48 -45 -7 0 52 71 67 80 29 17 26
10 -19 -35z m3603 8 c-13 -2 -35 -2 -50 0 -16 2 -5 4 22 4 28 0 40 -2 28 -4z
m-4298 -73 c-3 -5 -12 -10 -18 -10 -7 0 -6 4 3 10 19 12 23 12 15 0z m1696
-126 c14 -155 5 -185 -109 -330 -25 -32 22 52 71 126 l29 45 -5 133 c-2 73 -3
131 0 128 2 -2 9 -48 14 -102z m1774 46 l5 -45 -14 50 c-18 61 -18 61 -7 50 6
-6 13 -30 16 -55z m-1718 -87 c-3 -10 -5 -2 -5 17 0 19 2 27 5 18 2 -10 2 -26
0 -35z m1730 -10 c-3 -10 -5 -2 -5 17 0 19 2 27 5 18 2 -10 2 -26 0 -35z m848
-9 c-33 -7 -69 -13 -80 -12 -27 0 83 26 115 26 14 0 -2 -6 -35 -14z m-73 -52
c14 -6 29 -15 32 -20 6 -10 -99 30 -111 41 -6 7 37 -5 79 -21z m-4187 -2 c-3
-5 -12 -10 -18 -10 -7 0 -6 4 3 10 19 12 23 12 15 0z m2545 -10 c0 -28 34
-101 65 -140 l27 -35 -35 37 c-20 20 -44 59 -54 87 -16 47 -37 65 -45 41 -2
-6 -8 -2 -14 7 -10 16 -7 18 23 20 26 1 33 -2 33 -17z m-11 -110 c0 -15 -28
48 -28 65 0 11 6 2 14 -20 8 -22 15 -42 14 -45z m921 37 c0 -1 -32 -34 -72
-72 -61 -59 -65 -62 -23 -15 56 62 95 98 95 87z m-3540 -24 c0 -5 -30 -16 -68
-25 -37 -9 -78 -20 -92 -23 -23 -6 -23 -5 5 12 17 11 44 25 60 31 35 12 95 15
95 5z m2663 -66 c26 -22 78 -55 115 -74 37 -19 56 -31 42 -27 -58 16 -224 123
-234 151 -7 18 -6 17 77 -50z m-470 -4 c-13 -2 -33 -2 -45 0 -13 2 -3 4 22 4
25 0 35 -2 23 -4z m-1243 -63 c8 -5 11 -10 5 -10 -5 0 -17 5 -25 10 -8 5 -10
10 -5 10 6 0 17 -5 25 -10z m145 -41 c49 -13 84 -24 78 -26 -14 -5 -172 35
-193 48 -12 8 -11 9 5 5 11 -3 60 -15 110 -27z m2151 6 c-11 -8 -25 -15 -30
-15 -6 1 0 7 14 15 32 19 40 18 16 0z m-1022 -10 c95 -9 136 -45 52 -45 -34 0
-45 -4 -49 -19 -4 -18 -3 -18 29 -5 25 10 40 12 54 4 10 -5 21 -10 24 -10 13
0 5 29 -16 55 l-21 28 21 -12 c24 -13 40 -57 25 -72 -6 -6 -19 -6 -34 0 -41
15 -87 -21 -89 -69 -2 -26 -4 -23 -16 25 l-8 30 -6 -40 -5 -40 -15 45 c-10 28
-24 49 -40 57 -17 9 -20 13 -8 13 9 0 26 -12 37 -26 12 -15 21 -21 21 -15 0 7
-11 23 -25 37 -31 31 -91 31 -88 0 1 -12 -2 -15 -9 -8 -16 16 -5 57 14 56 10
-1 15 2 12 8 -3 5 6 6 23 3 22 -5 25 -4 13 4 -12 9 -8 10 15 6 17 -2 56 -7 89
-10z m2111 -35 c-2 -4 12 -22 31 -41 51 -48 67 -83 21 -42 -21 18 -36 35 -35
39 2 3 -10 13 -27 22 -25 13 -27 17 -12 20 18 4 18 4 0 25 l-18 22 22 -19 c13
-10 21 -22 18 -26z m-3315 10 c8 -5 11 -10 5 -10 -5 0 -17 5 -25 10 -8 5 -10
10 -5 10 6 0 17 -5 25 -10z m278 -7 c-10 -2 -26 -2 -35 0 -10 3 -2 5 17 5 19
0 27 -2 18 -5z m1175 -100 c-7 -2 -21 -2 -30 0 -10 3 -4 5 12 5 17 0 24 -2 18
-5z m-2528 -33 c-32 -21 -108 -40 -158 -40 -47 1 -16 16 80 39 101 25 115 25
78 1z m4457 -52 c27 -12 47 -23 45 -24 -2 -2 -36 7 -75 19 -40 13 -69 26 -66
30 9 9 35 2 96 -25z m-1909 15 c-7 -2 -19 -2 -25 0 -7 3 -2 5 12 5 14 0 19 -2
13 -5z m-903 -49 c-74 -24 -139 -42 -145 -41 -5 2 38 18 95 36 58 18 116 36
130 41 14 5 32 8 40 8 8 0 -46 -20 -120 -44z m973 39 c-7 -2 -21 -2 -30 0 -10
3 -4 5 12 5 17 0 24 -2 18 -5z m-778 -33 c-22 -10 -44 -18 -50 -18 -5 0 8 8
30 19 22 10 45 18 50 18 6 0 -8 -9 -30 -19z m-1847 -52 c-32 -37 -77 -75 -109
-92 l-54 -29 35 37 c19 21 58 52 85 71 28 18 59 42 69 54 11 12 21 21 24 21 2
0 -20 -28 -50 -62z m2999 26 c-3 -3 -12 -4 -19 -1 -8 3 -5 6 6 6 11 1 17 -2
13 -5z m50 -10 c-3 -3 -12 -4 -19 -1 -8 3 -5 6 6 6 11 1 17 -2 13 -5z m50 -10
c-3 -3 -12 -4 -19 -1 -8 3 -5 6 6 6 11 1 17 -2 13 -5z m-1632 -19 c-16 -8 -37
-14 -45 -14 -8 0 -1 6 15 14 17 7 37 13 45 13 8 0 2 -6 -15 -13z m1212 9 c-3
-3 -12 -4 -19 -1 -8 3 -5 6 6 6 11 1 17 -2 13 -5z m460 0 c-3 -3 -12 -4 -19
-1 -8 3 -5 6 6 6 11 1 17 -2 13 -5z m-2547 -18 c0 -2 -8 -10 -17 -17 -16 -13
-17 -12 -4 4 13 16 21 21 21 13z m800 -15 c-8 -5 -26 -11 -40 -15 -21 -5 -20
-3 5 9 32 15 60 20 35 6z m1877 3 c-3 -3 -12 -4 -19 -1 -8 3 -5 6 6 6 11 1 17
-2 13 -5z m1196 -1 c-7 -2 -19 -2 -25 0 -7 3 -2 5 12 5 14 0 19 -2 13 -5z
m-2898 -33 c-33 -16 -64 -28 -70 -28 -5 0 17 13 50 29 33 16 65 29 70 28 6 0
-17 -13 -50 -29z m1752 24 c-3 -3 -12 -4 -19 -1 -8 3 -5 6 6 6 11 1 17 -2 13
-5z m1090 0 c-3 -3 -12 -4 -19 -1 -8 3 -5 6 6 6 11 1 17 -2 13 -5z m-1407 -19
c19 -7 28 -13 20 -13 -8 0 -31 6 -50 13 -19 7 -28 13 -20 13 8 0 31 -6 50 -13z
m367 9 c-3 -3 -12 -4 -19 -1 -8 3 -5 6 6 6 11 1 17 -2 13 -5z m-3313 -42 c-23
-20 -61 -47 -85 -60 -27 -14 -34 -16 -19 -5 13 10 49 37 80 60 68 52 78 54 24
5z m486 35 c0 -2 -12 -14 -27 -28 l-28 -24 24 28 c23 25 31 32 31 24z m770 -6
c-8 -5 -26 -11 -40 -15 -21 -5 -20 -3 5 9 32 15 60 20 35 6z m1672 -59 c81
-31 146 -57 144 -59 -5 -6 -207 67 -270 98 -75 36 -61 31 126 -39z m425 62
c-3 -3 -12 -4 -19 -1 -8 3 -5 6 6 6 11 1 17 -2 13 -5z m214 -48 c101 -24 200
-47 219 -52 19 -4 30 -9 24 -11 -12 -4 -330 68 -405 91 -85 27 -19 15 162 -28z
m-2391 14 c-8 -5 -19 -10 -25 -10 -5 0 -3 5 5 10 8 5 20 10 25 10 6 0 3 -5 -5
-10z m1305 -28 c-3 -3 -11 0 -18 7 -9 10 -8 11 6 5 10 -3 15 -9 12 -12z m662
12 c-3 -3 -12 -4 -19 -1 -8 3 -5 6 6 6 11 1 17 -2 13 -5z m-2047 -13 c-8 -5
-26 -11 -40 -15 -21 -5 -20 -3 5 9 32 15 60 20 35 6z m-514 -27 c-38 -13 -71
-22 -73 -20 -5 5 107 44 127 44 8 0 -16 -10 -54 -24z m-476 13 c0 -2 -10 -12
-22 -23 l-23 -19 19 23 c18 21 26 27 26 19z m1210 -7 c-8 -5 -19 -10 -25 -10
-5 0 -3 5 5 10 8 5 20 10 25 10 6 0 3 -5 -5 -10z m-310 -15 c-14 -8 -29 -14
-35 -14 -5 0 1 6 15 14 14 8 30 14 35 14 6 0 -1 -6 -15 -14z m3047 9 c-3 -3
-12 -4 -19 -1 -8 3 -5 6 6 6 11 1 17 -2 13 -5z m53 -14 c18 -12 2 -12 -25 0
-13 6 -15 9 -5 9 8 0 22 -4 30 -9z m-2600 -28 c-63 -40 -227 -127 -217 -116
11 12 239 142 252 143 6 0 -10 -12 -35 -27z m1907 22 c-3 -3 -12 -4 -19 -1 -8
3 -5 6 6 6 11 1 17 -2 13 -5z m789 -25 c20 -22 23 -28 8 -19 -18 11 -50 50
-41 50 2 0 16 -14 33 -31z m-3281 1 c-22 -10 -44 -18 -50 -18 -5 0 8 8 30 19
22 10 45 18 50 18 6 0 -8 -9 -30 -19z m755 17 c0 -1 -51 -52 -112 -112 l-113
-110 110 113 c102 104 115 117 115 109z m1787 -3 c-3 -3 -12 -4 -19 -1 -8 3
-5 6 6 6 11 1 17 -2 13 -5z m390 0 c-3 -3 -12 -4 -19 -1 -8 3 -5 6 6 6 11 1
17 -2 13 -5z m-302 -19 c54 -17 33 -18 -30 -1 -27 8 -41 14 -30 14 11 0 38 -5
60 -13z m342 9 c-3 -3 -12 -4 -19 -1 -8 3 -5 6 6 6 11 1 17 -2 13 -5z m-1046
-21 c13 -16 12 -17 -3 -4 -17 13 -22 21 -14 21 2 0 10 -8 17 -17z m1086 11
c-3 -3 -12 -4 -19 -1 -8 3 -5 6 6 6 11 1 17 -2 13 -5z m364 -11 c13 -16 12
-17 -3 -4 -10 7 -18 15 -18 17 0 8 8 3 21 -13z m-3451 -13 c-8 -5 -19 -10 -25
-10 -5 0 -3 5 5 10 8 5 20 10 25 10 6 0 3 -5 -5 -10z m2865 -20 c33 -11 44
-17 25 -13 -19 3 -60 14 -90 24 -30 10 -41 16 -25 13 17 -2 57 -13 90 -24z
m-775 -26 c0 -2 -9 0 -20 6 -11 6 -20 13 -20 16 0 2 9 0 20 -6 11 -6 20 -13
20 -16z m1270 -11 c0 -7 -39 17 -46 28 -3 6 5 3 20 -6 14 -10 26 -19 26 -22z
m-166 -25 c19 -29 32 -55 30 -57 -9 -9 -60 45 -71 75 -18 51 2 42 41 -18z
m-3004 17 c0 -2 -10 -9 -22 -15 -22 -11 -22 -10 -4 4 21 17 26 19 26 11z
m2500 -90 c61 -30 110 -57 110 -60 0 -5 -219 102 -229 111 -14 13 23 -3 119
-51z m-2640 1 c0 -2 -8 -10 -17 -17 -16 -13 -17 -12 -4 4 13 16 21 21 21 13z
m3191 -33 c13 -16 12 -17 -3 -4 -10 7 -18 15 -18 17 0 8 8 3 21 -13z m-2631 4
c0 -2 -15 -16 -32 -33 l-33 -29 29 33 c28 30 36 37 36 29z m2501 -14 c13 -16
12 -17 -3 -4 -10 7 -18 15 -18 17 0 8 8 3 21 -13z m-3707 -48 c-38 -56 -54
-73 -33 -32 14 26 60 87 65 87 2 0 -12 -25 -32 -55z m3777 28 c13 -16 12 -17
-3 -4 -17 13 -22 21 -14 21 2 0 10 -8 17 -17z m104 -23 c16 -16 24 -30 18 -30
-7 0 -21 14 -33 30 -12 17 -20 30 -18 30 3 0 17 -13 33 -30z m-3340 10 c-3 -5
-20 -19 -38 -30 -32 -22 -32 -22 3 9 37 32 45 37 35 21z m2946 -42 l24 -20
-31 17 c-17 10 -41 26 -55 37 l-24 20 31 -17 c17 -10 41 -26 55 -37z m-2681
28 c0 -2 -8 -10 -17 -17 -16 -13 -17 -12 -4 4 13 16 21 21 21 13z m2351 -158
c58 -56 69 -69 25 -28 -45 42 -106 98 -136 124 -30 27 -41 40 -25 28 17 -11
78 -67 136 -124z m410 115 c13 -16 12 -17 -3 -4 -17 13 -22 21 -14 21 2 0 10
-8 17 -17z m-3111 -6 c0 -2 -10 -12 -22 -23 l-23 -19 19 23 c18 21 26 27 26
19z m280 -10 c0 -2 -12 -14 -27 -28 l-28 -24 24 28 c23 25 31 32 31 24z m2761
-19 c11 -21 11 -22 -4 -9 -10 7 -17 17 -17 22 0 15 9 10 21 -13z m144 -52 c6
-4 1 -4 -10 2 -11 6 -31 23 -45 39 l-25 28 35 -30 c19 -16 40 -34 45 -39z
m-3732 16 c-35 -34 -58 -46 -29 -14 17 18 34 32 38 32 5 0 1 -8 -9 -18z m487
15 c0 -2 -15 -16 -32 -33 l-33 -29 29 33 c28 30 36 37 36 29z m3120 -42 c0 -5
-5 -3 -10 5 -5 8 -10 20 -10 25 0 6 5 3 10 -5 5 -8 10 -19 10 -25z m-3322 -45
c-22 -30 -35 -41 -22 -17 9 16 36 47 41 47 2 0 -6 -13 -19 -30z m2817 -16 c9
-15 12 -23 6 -20 -11 7 -35 46 -28 46 3 0 12 -12 22 -26z m-2645 -8 c0 -2 -8
-10 -17 -17 -16 -13 -17 -12 -4 4 13 16 21 21 21 13z m2685 -46 c10 -11 16
-20 13 -20 -3 0 -13 9 -23 20 -10 11 -16 20 -13 20 3 0 13 -9 23 -20z m-2787
-32 c-3 -7 -24 -24 -47 -37 -49 -27 -49 -41 1 -15 31 16 32 16 19 0 -15 -18
-79 -48 -92 -44 -10 4 18 37 66 76 42 34 59 40 53 20z m3142 -121 c16 -33 30
-67 30 -76 -1 -12 -3 -11 -12 4 -6 11 -26 43 -44 72 -37 56 -42 76 -19 67 8
-3 28 -33 45 -67z m-3061 60 c-2 -1 -13 -9 -24 -17 -19 -14 -19 -14 -6 3 7 9
18 17 24 17 6 0 8 -1 6 -3z m2718 -184 c-3 -10 -5 -2 -5 17 0 19 2 27 5 18 2
-10 2 -26 0 -35z m254 -20 c13 -16 12 -17 -3 -4 -17 13 -22 21 -14 21 2 0 10
-8 17 -17z m-244 -95 c-2 -18 -4 -6 -4 27 0 33 2 48 4 33 2 -15 2 -42 0 -60z
m-2320 -30 c-3 -8 -6 -5 -6 6 -1 11 2 17 5 13 3 -3 4 -12 1 -19z m2574 -21
c10 -18 6 -17 -20 7 -36 34 -39 41 -11 26 11 -6 25 -20 31 -33z m-2961 0 c0
-2 -11 -18 -25 -37 -14 -19 -25 -31 -25 -27 0 5 10 21 22 37 20 27 28 35 28
27z m127 -164 c-2 -32 -3 -6 -3 57 0 63 1 89 3 58 2 -32 2 -84 0 -115z m1220
145 c-3 -8 -6 -5 -6 6 -1 11 2 17 5 13 3 -3 4 -12 1 -19z m-930 -90 c-3 -8 -6
-5 -6 6 -1 11 2 17 5 13 3 -3 4 -12 1 -19z m-397 -8 c-6 -11 -34 -44 -63 -73
-28 -29 -38 -37 -21 -18 17 20 43 53 59 74 30 40 42 49 25 17z m3010 6 c0 -3
-4 -8 -10 -11 -5 -3 -10 -1 -10 4 0 6 5 11 10 11 6 0 10 -2 10 -4z m-2583
-158 c-3 -8 -6 -5 -6 6 -1 11 2 17 5 13 3 -3 4 -12 1 -19z m2675 -11 c-34 -36
-26 -44 10 -11 18 16 27 22 20 13 -6 -9 -10 -19 -7 -22 3 -4 2 -5 -2 -2 -3 3
-11 -5 -17 -17 -16 -30 -35 -34 -34 -6 1 20 34 68 46 68 3 0 -4 -10 -16 -23z
m-2985 -99 c-2 -18 -4 -4 -4 32 0 36 2 50 4 33 2 -18 2 -48 0 -65z m2968 -48
c10 -11 16 -20 13 -20 -3 0 -13 9 -23 20 -10 11 -16 20 -13 20 3 0 13 -9 23
-20z m-2688 -92 c-3 -8 -6 -5 -6 6 -1 11 2 17 5 13 3 -3 4 -12 1 -19z m2793
-8 c0 -14 -5 -18 -17 -13 -10 4 -14 2 -10 -4 4 -6 1 -16 -6 -22 -20 -16 -19
19 1 42 20 22 32 22 32 -3z m-3320 -24 c0 -2 -8 -10 -17 -17 -16 -13 -17 -12
-4 4 13 16 21 21 21 13z m537 -18 c-3 -8 -6 -5 -6 6 -1 11 2 17 5 13 3 -3 4
-12 1 -19z m10 -50 c-3 -7 -5 -2 -5 12 0 14 2 19 5 13 2 -7 2 -19 0 -25z m10
-65 c-3 -10 -5 -2 -5 17 0 19 2 27 5 18 2 -10 2 -26 0 -35z m-598 18 c-7 -10
-21 -24 -33 -31 -15 -9 -12 -3 8 19 34 35 41 39 25 12z m608 -73 c-3 -7 -5 -2
-5 12 0 14 2 19 5 13 2 -7 2 -19 0 -25z m1630 -20 c-3 -8 -6 -5 -6 6 -1 11 2
17 5 13 3 -3 4 -12 1 -19z m-10 -50 c-3 -7 -5 -2 -5 12 0 14 2 19 5 13 2 -7 2
-19 0 -25z m-1587 -23 c0 -5 -5 -3 -10 5 -5 8 -10 20 -10 25 0 6 5 3 10 -5 5
-8 10 -19 10 -25z m1577 -27 c-3 -7 -5 -2 -5 12 0 14 2 19 5 13 2 -7 2 -19 0
-25z m-10 -40 c-3 -8 -6 -5 -6 6 -1 11 2 17 5 13 3 -3 4 -12 1 -19z m1086 -73
c-20 -25 -38 -45 -38 -45 -1 0 1 16 3 35 4 29 9 37 36 44 17 5 32 10 34 10 2
1 -14 -19 -35 -44z m-3323 -48 c0 -7 -89 -67 -99 -67 -24 0 -7 16 42 42 57 29
57 29 57 25z m10 -42 c-23 -28 -68 -56 -74 -46 -3 5 13 21 37 35 50 30 54 31
37 11z m-25 -65 c-15 -16 -33 -26 -38 -23 -6 3 3 17 19 30 41 33 53 29 19 -7z
m-7 -62 c-2 -6 -13 -12 -24 -14 -19 -3 -19 -3 0 12 24 17 29 18 24 2z m-48
-32 c0 -3 -4 -8 -10 -11 -5 -3 -10 -1 -10 4 0 6 5 11 10 11 6 0 10 -2 10 -4z
m16 -31 c-15 -23 -36 -34 -36 -18 0 10 43 54 48 48 3 -2 -3 -16 -12 -30z m-71
-5 c-20 -22 -14 -39 8 -24 7 5 4 1 -7 -9 -13 -12 -21 -14 -26 -7 -4 7 -10 11
-14 11 -37 -5 -34 11 7 32 44 22 54 21 32 -3z m3525 -39 c0 -4 -27 -37 -60
-72 -55 -59 -60 -62 -54 -34 8 42 114 141 114 106z m-3390 -174 c0 -2 -10 -12
-22 -23 l-23 -19 19 23 c18 21 26 27 26 19z m3394 -51 c-3 -15 -13 -26 -23
-26 -9 0 -23 -6 -31 -12 -7 -7 1 6 19 30 36 47 46 49 35 8z m-3404 -10 c0 -2
-8 -10 -17 -17 -16 -13 -17 -12 -4 4 13 16 21 21 21 13z m-146 -56 c-15 -22
-31 -39 -36 -38 -17 6 -13 21 7 32 11 6 26 19 33 29 25 33 22 17 -4 -23z
m3551 20 c8 -13 -5 -13 -25 0 -13 8 -13 10 2 10 9 0 20 -4 23 -10z m152 -36
c-3 -3 -12 -4 -19 -1 -8 3 -5 6 6 6 11 1 17 -2 13 -5z m-3680 -70 c-3 -3 -12
-4 -19 -1 -8 3 -5 6 6 6 11 1 17 -2 13 -5z m3253 -3 c42 -8 42 -9 10 -9 -19 0
-55 3 -80 7 -42 8 -42 9 -10 9 19 0 55 -3 80 -7z m-1214 -21 c-61 -24 -84 -44
-107 -95 -13 -28 -19 -34 -19 -19 0 52 95 135 155 134 11 -1 -2 -9 -29 -20z
m702 -39 c20 -10 48 -32 62 -48 l25 -28 -30 26 c-33 29 -66 48 -104 60 -17 5
-20 8 -8 8 10 1 34 -8 55 -18z m-1968 -32 c-14 -11 -33 -24 -44 -30 -32 -19
-7 11 28 32 40 25 48 24 16 -2z m714 -27 c14 -21 26 -42 26 -46 0 -8 -29 31
-54 72 -17 28 3 9 28 -26z m-941 -19 c-35 -2 -91 -2 -125 0 -35 2 -7 3 62 3
69 0 97 -1 63 -3z m290 0 c-7 -2 -19 -2 -25 0 -7 3 -2 5 12 5 14 0 19 -2 13
-5z m2332 -13 c-16 -4 -68 -7 -115 -7 l-85 1 85 6 c47 3 99 7 115 7 l30 1 -30
-8z m-2075 -3 c0 -2 -12 -14 -27 -28 l-28 -24 24 28 c23 25 31 32 31 24z"/>
<path d="M2180 5976 c0 -2 8 -10 18 -17 15 -13 16 -12 3 4 -13 16 -21 21 -21
13z"/>
<path d="M4350 4027 c-38 -13 -100 -87 -100 -119 0 -11 9 -31 20 -45 26 -33
25 -45 -5 -73 -28 -27 -31 -49 -11 -88 31 -60 112 -112 174 -112 16 0 53 12
83 28 46 23 58 35 83 86 36 72 38 133 6 197 -57 114 -149 160 -250 126z m50
-277 c-6 -11 -13 -20 -16 -20 -2 0 0 9 6 20 6 11 13 20 16 20 2 0 0 -9 -6 -20z"/>
<path d="M4180 3700 c0 -5 4 -10 9 -10 6 0 13 5 16 10 3 6 -1 10 -9 10 -9 0
-16 -4 -16 -10z"/>
<path d="M4649 3483 c-13 -16 -12 -17 4 -4 16 13 21 21 13 21 -2 0 -10 -8 -17
-17z"/>
<path d="M2495 4044 c-47 -24 -72 -52 -95 -105 l-21 -50 26 -30 c30 -37 31
-39 4 -73 -18 -23 -20 -31 -10 -53 10 -21 9 -29 -6 -46 -17 -20 -17 -20 2 -9
16 9 22 6 37 -19 40 -66 136 -94 215 -64 55 21 89 54 115 113 48 106 4 263
-90 323 -53 34 -127 39 -177 13z m35 -108 c0 -2 -8 -10 -17 -17 -16 -13 -17
-12 -4 4 13 16 21 21 21 13z m-10 -125 c-5 -11 -15 -23 -21 -27 -6 -3 -3 5 6
20 20 30 30 35 15 7z"/>
<path d="M2210 3551 c0 -5 5 -13 10 -16 6 -3 10 -2 10 4 0 5 -4 13 -10 16 -5
3 -10 2 -10 -4z"/>
<path d="M5612 6805 c-1 -16 -4 -111 -7 -210 -3 -99 -6 -207 -8 -240 -2 -54 0
-60 18 -60 23 0 22 -29 7 330 -5 116 -9 197 -10 180z"/>
<path d="M5673 6658 c4 -95 8 -229 9 -298 1 -71 4 -13 8 135 6 276 4 335 -13
335 -7 0 -8 -57 -4 -172z"/>
<path d="M5843 6817 c3 -8 8 -65 12 -128 4 -63 15 -132 23 -154 21 -55 41
-1385 22 -1482 -14 -75 -8 -103 25 -103 32 0 44 25 33 69 -14 61 -27 425 -29
896 -4 559 -4 567 15 618 8 24 18 98 21 170 6 121 6 127 -13 127 -17 0 -20 -9
-25 -81 -3 -44 -8 -83 -12 -87 -14 -14 -25 27 -25 96 0 71 0 72 -26 72 -18 0
-24 -4 -21 -13z"/>
<path d="M6086 6703 c4 -71 8 -263 9 -428 1 -267 3 -300 17 -303 9 -2 18 1 21
5 2 4 -2 105 -9 223 -7 118 -13 308 -13 423 -1 184 -3 207 -17 207 -15 0 -16
-13 -8 -127z"/>
<path d="M6150 6768 c0 -35 -5 -109 -12 -166 -10 -88 -10 -105 3 -117 13 -13
18 -13 34 -2 17 13 17 21 7 116 -7 56 -12 131 -12 166 0 37 -4 65 -10 65 -6 0
-10 -27 -10 -62z"/>
<path d="M6233 6753 c15 -187 28 -941 24 -1433 -2 -294 -6 -546 -8 -559 -5
-31 24 -52 45 -31 13 13 13 22 0 70 -8 30 -15 87 -15 125 0 92 -17 1739 -18
1833 -1 60 -4 72 -17 72 -15 0 -16 -10 -11 -77z"/>
<path d="M6313 6688 c4 -79 12 -405 19 -725 9 -466 9 -597 -1 -653 -10 -57
-10 -74 0 -86 11 -13 14 -13 27 -1 12 12 12 24 2 73 -9 43 -13 256 -14 796 -1
717 -2 738 -20 738 -18 0 -19 -7 -13 -142z"/>
<path d="M6483 6428 c3 -267 8 -403 15 -406 16 -5 24 32 12 63 -7 18 -8 147
-3 386 6 338 5 359 -11 359 -17 0 -18 -24 -13 -402z"/>
<path d="M6772 6728 c-2 -56 -5 -161 -6 -232 -2 -72 -6 -144 -10 -161 -15 -61
-23 -180 -14 -191 5 -7 8 -16 6 -20 -1 -5 6 -26 16 -46 10 -21 15 -45 12 -54
-4 -9 -1 -23 5 -30 6 -8 14 -43 17 -79 2 -37 11 -70 18 -76 12 -10 14 68 14
490 l0 501 -27 0 -28 0 -3 -102z m45 -840 c-3 -8 -6 -5 -6 6 -1 11 2 17 5 13
3 -3 4 -12 1 -19z"/>
<path d="M4266 6719 c-31 -25 -34 -61 -6 -89 38 -38 90 -15 90 38 0 32 -8 45
-36 60 -18 10 -27 8 -48 -9z m59 -49 c0 -28 -4 -36 -21 -38 -11 -2 -27 4 -34
13 -20 24 3 67 33 63 18 -2 22 -9 22 -38z"/>
<path d="M1690 6687 c0 -16 49 -113 62 -125 9 -7 0 18 -19 55 -38 72 -43 80
-43 70z"/>
<path d="M3495 6670 c10 -11 20 -20 23 -20 3 0 -3 9 -13 20 -10 11 -20 20 -23
20 -3 0 3 -9 13 -20z"/>
<path d="M5255 6648 c-16 -24 -22 -38 -14 -31 15 12 53 73 46 73 -2 0 -17 -19
-32 -42z"/>
<path d="M675 6630 c-4 -6 -3 -16 3 -22 13 -13 23 4 13 21 -7 10 -10 10 -16 1z"/>
<path d="M3532 6610 c14 -43 18 -49 18 -24 0 11 -7 29 -15 40 -13 17 -14 16
-3 -16z"/>
<path d="M3813 6614 c-3 -8 -1 -20 5 -26 16 -16 47 -5 50 20 3 18 -1 22 -23
22 -14 0 -28 -7 -32 -16z m47 -3 c0 -14 -18 -23 -30 -16 -6 4 -8 11 -5 16 8
12 35 12 35 0z"/>
<path d="M974 6394 c3 -126 9 -479 12 -784 3 -305 8 -557 10 -559 17 -17 20
45 13 259 -4 135 -11 483 -15 773 -4 336 -11 530 -17 534 -7 4 -8 -70 -3 -223z"/>
<path d="M5766 6604 c-8 -21 4 -211 15 -239 4 -12 8 33 8 105 1 122 -8 173
-23 134z"/>
<path d="M2334 6500 c0 -63 1 -89 3 -57 2 31 2 83 0 115 -2 31 -3 5 -3 -58z"/>
<path d="M4509 6593 c-13 -16 -12 -17 4 -4 16 13 21 21 13 21 -2 0 -10 -8 -17
-17z"/>
<path d="M1856 6575 c-3 -9 -5 -29 -5 -43 1 -20 3 -17 9 13 8 43 7 57 -4 30z"/>
<path d="M4905 6573 c-18 -18 -16 -32 9 -47 13 -9 20 -7 31 7 25 35 -10 70
-40 40z m38 -9 c9 -9 -4 -34 -18 -34 -14 0 -27 25 -18 34 4 3 12 6 18 6 6 0
14 -3 18 -6z"/>
<path d="M549 6380 c-7 -461 -3 -582 22 -664 17 -53 19 -101 18 -585 -1 -289
-2 -542 -2 -561 -2 -29 2 -36 20 -38 32 -5 47 29 32 76 -7 24 -14 213 -18 542
-7 433 -6 512 7 555 11 39 15 120 17 360 2 171 -1 315 -5 320 -4 6 -6 37 -5
70 1 33 -1 69 -6 80 -7 18 -8 17 -8 -5 3 -176 -3 -597 -8 -639 -5 -48 -8 -52
-20 -36 -9 14 -13 63 -14 184 0 91 -7 252 -14 356 l-12 190 -4 -205z"/>
<path d="M2273 6480 c0 -41 2 -58 4 -37 2 20 2 54 0 75 -2 20 -4 3 -4 -38z"/>
<path d="M3550 6508 c0 -33 5 -40 48 -69 88 -59 92 -81 27 -150 -25 -26 -45
-53 -45 -60 0 -6 -8 -18 -17 -25 -16 -12 -15 -13 15 -14 44 0 88 24 106 58 41
80 23 153 -52 202 -25 16 -49 30 -54 30 -4 0 -8 8 -8 18 0 9 -5 24 -10 32 -7
11 -10 6 -10 -22z m109 -240 c-23 -45 -59 -74 -59 -49 0 13 50 71 61 71 6 0 5
-10 -2 -22z"/>
<path d="M5043 6480 c0 -36 2 -50 4 -32 2 17 2 47 0 65 -2 17 -4 3 -4 -33z"/>
<path d="M5450 6489 c-7 -11 -10 -23 -7 -25 2 -2 9 7 15 21 14 30 7 33 -8 4z"/>
<path d="M5998 6385 c-3 -14 -2 -27 1 -30 4 -2 8 10 9 26 3 36 -4 38 -10 4z"/>
<path d="M1934 6365 c17 -40 35 -73 36 -64 0 10 -40 99 -46 99 -2 0 2 -16 10
-35z"/>
<path d="M6610 6391 c0 -6 4 -13 10 -16 6 -3 7 1 4 9 -7 18 -14 21 -14 7z"/>
<path d="M4045 6364 c-25 -27 -35 -84 -15 -84 6 0 10 14 10 32 0 19 9 41 22
55 12 13 18 23 14 23 -4 0 -18 -12 -31 -26z"/>
<path d="M4646 6330 c3 -14 10 -29 15 -34 14 -16 10 6 -7 34 l-15 25 7 -25z"/>
<path d="M4924 6323 c-13 -62 -27 -90 -61 -128 l-35 -40 4 94 c5 114 -8 87
-18 -36 -3 -49 -13 -98 -21 -111 -26 -41 -6 -35 30 10 62 77 105 152 112 196
7 46 -1 58 -11 15z"/>
<path d="M2736 6294 c-31 -31 -15 -94 25 -94 38 0 59 60 30 89 -25 25 -35 26
-55 5z m50 -30 c4 -17 1 -31 -9 -41 -13 -14 -16 -13 -27 6 -13 26 -5 61 15 61
8 0 18 -12 21 -26z"/>
<path d="M5980 6253 c0 -64 6 -78 29 -63 9 5 12 18 7 41 -4 19 -7 45 -7 59 0
14 -3 19 -6 11 -5 -11 -7 -11 -14 0 -5 9 -9 -9 -9 -48z"/>
<path d="M2273 6255 c0 -27 2 -38 4 -22 2 15 2 37 0 50 -2 12 -4 0 -4 -28z"/>
<path d="M5770 6289 c0 -5 5 -7 10 -4 6 3 10 8 10 11 0 2 -4 4 -10 4 -5 0 -10
-5 -10 -11z"/>
<path d="M2330 6226 c0 -25 5 -46 10 -46 6 0 10 18 10 39 0 22 -4 43 -10 46
-6 4 -10 -12 -10 -39z"/>
<path d="M2850 6200 c0 -5 5 -10 10 -10 6 0 10 5 10 10 0 6 -4 10 -10 10 -5 0
-10 -4 -10 -10z"/>
<path d="M3435 6186 c-30 -17 -44 -33 -55 -64 -13 -39 -13 -43 9 -72 21 -29
21 -33 7 -49 -22 -24 -20 -46 6 -71 30 -28 47 -25 20 3 -28 29 -28 41 -1 59
l22 14 -28 42 c-24 36 -26 47 -19 74 10 34 52 65 107 78 l32 8 -30 0 c-16 0
-48 -10 -70 -22z"/>
<path d="M4363 6160 c0 -30 2 -43 4 -27 2 15 2 39 0 55 -2 15 -4 2 -4 -28z"/>
<path d="M5620 6183 c0 -16 -3 -39 -6 -53 -5 -17 -3 -22 4 -15 12 12 21 95 10
95 -5 0 -8 -12 -8 -27z"/>
<path d="M2197 6153 c9 -55 25 -89 18 -38 -2 22 -5 48 -5 58 0 9 -4 17 -9 17
-6 0 -7 -17 -4 -37z"/>
<path d="M5747 6171 c-4 -17 -3 -21 5 -13 5 5 8 16 6 23 -3 8 -7 3 -11 -10z"/>
<path d="M5682 5850 c0 -118 -4 -249 -8 -291 -5 -62 -4 -77 8 -82 8 -3 21 -2
28 3 10 6 11 26 1 101 -6 52 -15 182 -19 289 l-9 195 -1 -215z"/>
<path d="M2256 6034 c-10 -25 1 -29 14 -5 6 12 7 21 1 21 -5 0 -12 -7 -15 -16z"/>
<path d="M4358 6044 c-4 -6 -10 -30 -14 -52 -5 -34 -3 -43 10 -48 31 -12 39
10 24 62 -8 27 -17 44 -20 38z"/>
<path d="M2315 6010 c-17 -19 -14 -57 4 -46 12 8 32 66 22 66 -4 0 -16 -9 -26
-20z"/>
<path d="M4639 5929 l-32 -40 -35 33 -36 33 27 -37 c15 -20 27 -42 27 -49 0
-15 52 33 82 74 31 43 3 32 -33 -14z"/>
<path d="M2650 5919 c0 -24 5 -51 10 -59 7 -10 8 2 4 40 -8 69 -14 77 -14 19z"/>
<path d="M2841 5944 c0 -11 3 -14 6 -6 3 7 2 16 -1 19 -3 4 -6 -2 -5 -13z"/>
<path d="M4523 5868 c12 -29 23 -55 25 -57 1 -3 13 6 25 19 12 13 14 18 5 11
-14 -11 -20 -6 -43 33 -15 25 -28 46 -30 46 -2 0 6 -24 18 -52z"/>
<path d="M2513 5884 c3 -11 11 -45 17 -76 6 -32 16 -61 22 -64 7 -5 9 -2 5 8
-3 9 -11 44 -18 77 -6 34 -16 64 -21 67 -6 4 -8 -1 -5 -12z"/>
<path d="M3510 5881 c5 -11 10 -39 11 -63 l1 -43 10 32 c11 34 -4 93 -24 93
-5 0 -4 -9 2 -19z"/>
<path d="M3952 5875 c0 -16 2 -22 5 -12 2 9 2 23 0 30 -3 6 -5 -1 -5 -18z"/>
<path d="M2596 5860 c3 -14 10 -29 15 -34 14 -16 10 6 -7 34 l-15 25 7 -25z"/>
<path d="M4102 5860 c0 -14 2 -19 5 -12 2 6 2 18 0 25 -3 6 -5 1 -5 -13z"/>
<path d="M2415 5850 c21 -24 26 -25 19 -6 -3 8 -13 17 -22 21 -13 5 -13 2 3
-15z"/>
<path d="M3881 5844 c0 -11 3 -14 6 -6 3 7 2 16 -1 19 -3 4 -6 -2 -5 -13z"/>
<path d="M1168 5824 c6 -11 19 -27 28 -35 16 -13 16 -12 6 7 -6 11 -19 27 -28
35 -16 13 -16 12 -6 -7z"/>
<path d="M4201 5767 c-19 -29 -27 -46 -18 -38 19 15 61 80 56 86 -2 2 -19 -20
-38 -48z"/>
<path d="M2910 5761 c0 -11 5 -23 10 -26 6 -3 10 3 10 14 0 11 -4 23 -10 26
-5 3 -10 -3 -10 -14z"/>
<path d="M4016 5765 c-9 -26 -7 -32 5 -12 6 10 9 21 6 23 -2 3 -7 -2 -11 -11z"/>
<path d="M6645 5593 c7 -268 7 -924 0 -976 -4 -31 -2 -54 6 -63 8 -10 13 -120
16 -371 3 -197 8 -419 13 -493 5 -95 7 12 9 359 l1 493 24 -6 c31 -8 86 36 86
68 0 36 -34 67 -74 69 l-36 2 0 310 c-1 302 -4 408 -16 510 -7 60 -10 119 -12
203 -1 34 -6 62 -12 62 -6 0 -8 -62 -5 -167z"/>
<path d="M4402 5713 c-6 -2 -10 -9 -6 -14 8 -14 21 -11 28 6 6 15 1 17 -22 8z"/>
<path d="M1094 5667 c44 -28 184 -115 221 -137 37 -21 38 -21 20 -2 -24 25
-233 152 -249 151 -6 0 -3 -6 8 -12z"/>
<path d="M4104 5625 c-21 -30 -35 -57 -33 -59 2 -2 21 23 41 55 47 75 40 77
-8 4z"/>
<path d="M1290 5654 c0 -3 11 -22 25 -42 14 -20 25 -42 25 -48 0 -17 27 -37
34 -25 6 10 -63 120 -76 121 -5 0 -8 -2 -8 -6z"/>
<path d="M3408 5645 c5 -11 12 -27 15 -35 5 -13 6 -13 6 1 1 8 -6 24 -15 35
-15 19 -15 19 -6 -1z"/>
<path d="M3761 5640 c0 -14 4 -32 9 -40 9 -13 10 -13 9 0 -1 8 -5 26 -9 40
l-8 25 -1 -25z"/>
<path d="M2840 5646 c0 -2 8 -10 18 -17 15 -13 16 -12 3 4 -13 16 -21 21 -21
13z"/>
<path d="M4190 5630 c8 -5 22 -9 30 -9 10 0 8 3 -5 9 -27 12 -43 12 -25 0z"/>
<path d="M5482 5573 c-6 -20 -10 -39 -8 -41 2 -2 9 13 16 33 7 20 10 38 8 41
-3 2 -10 -13 -16 -33z"/>
<path d="M3320 5595 c0 -5 5 -17 10 -25 5 -8 10 -10 10 -5 0 6 -5 17 -10 25
-5 8 -10 11 -10 5z"/>
<path d="M2641 5586 c2 -2 15 -9 29 -16 23 -12 24 -12 11 3 -7 10 -20 17 -29
17 -8 0 -13 -2 -11 -4z"/>
<path d="M3977 5577 c-3 -8 -8 -36 -11 -63 -5 -47 -5 -46 8 11 14 57 15 82 3
52z"/>
<path d="M4200 5560 c0 -6 9 -10 19 -10 11 0 22 -5 24 -10 3 -6 4 -5 3 1 -3
15 -46 32 -46 19z"/>
<path d="M3157 5519 c4 -16 8 -18 14 -7 7 10 9 10 9 1 0 -7 5 -13 11 -13 14 0
2 18 -21 30 -15 8 -17 7 -13 -11z"/>
<path d="M1195 5431 c22 -23 49 -47 60 -53 23 -12 18 -7 -50 53 l-50 43 40
-43z"/>
<path d="M5555 5382 l-48 -57 54 52 c29 29 51 55 48 58 -3 2 -27 -21 -54 -53z"/>
<path d="M1281 5297 c2 -1 13 -9 24 -17 19 -14 19 -14 6 3 -7 9 -18 17 -24 17
-6 0 -8 -1 -6 -3z"/>
<path d="M5710 5225 c-8 -9 -8 -15 -2 -15 12 0 26 19 19 26 -2 2 -10 -2 -17
-11z"/>
<path d="M776 4915 c2 -121 4 -336 4 -477 0 -142 3 -258 8 -258 10 0 3 749 -8
865 -7 66 -8 31 -4 -130z"/>
<path d="M5619 5083 c-13 -16 -12 -17 4 -4 16 13 21 21 13 21 -2 0 -10 -8 -17
-17z"/>
<path d="M5619 4993 c-13 -15 -12 -15 9 -4 23 12 28 21 13 21 -5 0 -15 -7 -22
-17z"/>
<path d="M1044 4931 c4 -6 13 -11 19 -11 7 0 59 -23 116 -50 57 -28 106 -49
108 -47 4 5 -191 101 -226 112 -16 5 -21 4 -17 -4z"/>
<path d="M5539 4923 c-13 -16 -12 -17 4 -4 9 7 17 15 17 17 0 8 -8 3 -21 -13z"/>
<path d="M5650 4839 c-25 -17 -54 -40 -65 -51 -11 -11 12 1 50 27 79 53 82 55
69 55 -5 0 -29 -14 -54 -31z"/>
<path d="M5615 4710 c-10 -11 -13 -20 -8 -20 13 0 38 29 31 35 -3 3 -13 -4
-23 -15z"/>
<path d="M6817 4711 c-2 -10 -1 -25 4 -32 6 -10 9 -4 9 19 0 36 -5 42 -13 13z"/>
<path d="M1040 4640 c0 -11 21 -11 65 0 27 7 25 8 -17 9 -27 0 -48 -3 -48 -9z"/>
<path d="M1016 4571 c9 -9 83 -27 74 -18 -3 3 -23 10 -44 16 -22 5 -35 6 -30
2z"/>
<path d="M5775 4475 c-16 -7 -23 -14 -15 -14 8 0 29 6 45 14 17 7 23 14 15 14
-8 0 -28 -6 -45 -14z"/>
<path d="M5875 4455 c-22 -8 -31 -14 -20 -14 11 0 34 6 50 14 38 17 22 17 -30
0z"/>
<path d="M5740 4421 c-30 -10 -68 -25 -85 -35 -37 -20 -18 -16 97 24 89 31 79
41 -12 11z"/>
<path d="M5676 4331 c-4 -5 3 -7 14 -4 23 6 26 13 6 13 -8 0 -17 -4 -20 -9z"/>
<path d="M637 4291 c-12 -57 -9 -863 2 -874 6 -6 11 -7 11 -2 0 6 1 209 2 452
1 243 0 445 -4 448 -3 3 -8 -8 -11 -24z"/>
<path d="M1085 4313 c-11 -3 -24 -9 -30 -15 -10 -10 32 -2 70 13 l20 8 -20 -1
c-11 0 -29 -2 -40 -5z"/>
<path d="M383 3793 c4 -285 7 -664 7 -842 0 -211 3 -322 10 -315 13 13 0 1674
-13 1674 -7 0 -8 -175 -4 -517z"/>
<path d="M5918 4255 c-12 -62 -10 -151 2 -139 7 7 10 46 8 95 -3 71 -4 78 -10
44z"/>
<path d="M950 4112 c0 -4 16 -6 35 -4 19 2 35 6 35 8 0 2 -16 4 -35 4 -19 0
-35 -4 -35 -8z"/>
<path d="M1255 4070 c-56 -33 -54 -41 3 -10 49 25 69 40 57 39 -5 0 -32 -13
-60 -29z"/>
<path d="M6802 4048 c2 -18 8 -33 13 -33 6 0 11 15 13 33 3 24 -1 32 -13 32
-12 0 -16 -8 -13 -32z"/>
<path d="M100 3975 c0 -27 3 -45 7 -41 7 7 5 77 -3 85 -2 2 -4 -17 -4 -44z"/>
<path d="M6432 3718 c1 -154 3 -203 8 -158 12 102 12 380 0 380 -6 0 -9 -80
-8 -222z"/>
<path d="M6808 3915 c-23 -30 -22 -68 2 -125 l19 -45 0 98 c1 53 0 97 -1 97
-2 0 -11 -11 -20 -25z"/>
<path d="M1103 3913 c15 -2 39 -2 55 0 15 2 2 4 -28 4 -30 0 -43 -2 -27 -4z"/>
<path d="M105 3829 c5 -110 15 -113 15 -6 0 50 -4 87 -10 87 -6 0 -8 -32 -5
-81z"/>
<path d="M131 3854 c0 -11 3 -14 6 -6 3 7 2 16 -1 19 -3 4 -6 -2 -5 -13z"/>
<path d="M114 3615 c0 -60 1 -84 3 -52 2 32 2 81 0 110 -2 29 -3 3 -3 -58z"/>
<path d="M153 3650 c0 -25 2 -35 4 -22 2 12 2 32 0 45 -2 12 -4 2 -4 -23z"/>
<path d="M5820 3660 c0 -5 12 -10 28 -10 21 0 24 2 12 10 -20 13 -40 13 -40 0z"/>
<path d="M1050 3554 l-25 -15 25 7 c14 3 32 10 40 15 13 7 13 8 0 8 -8 0 -26
-6 -40 -15z"/>
<path d="M6815 3538 c-4 -13 -6 -33 -5 -45 1 -16 -4 -23 -17 -24 -11 0 -13 -3
-5 -6 10 -4 10 -8 1 -20 -9 -10 -10 -17 -2 -21 6 -4 13 -17 14 -30 2 -12 9
-23 14 -22 9 0 20 190 11 190 -2 0 -7 -10 -11 -22z"/>
<path d="M6682 3530 c0 -14 2 -19 5 -12 2 6 2 18 0 25 -3 6 -5 1 -5 -13z"/>
<path d="M5900 3534 c0 -5 40 -21 78 -30 15 -4 24 -4 20 0 -8 9 -98 37 -98 30z"/>
<path d="M6681 3444 c0 -11 3 -14 6 -6 3 7 2 16 -1 19 -3 4 -6 -2 -5 -13z"/>
<path d="M138 3432 c-25 -3 -28 -7 -28 -43 0 -21 4 -39 9 -39 4 0 6 -10 4 -23
-6 -32 22 -56 42 -36 16 16 23 125 9 137 -5 4 -21 6 -36 4z"/>
<path d="M6602 3390 c0 -14 2 -19 5 -12 2 6 2 18 0 25 -3 6 -5 1 -5 -13z"/>
<path d="M6682 3365 c0 -16 2 -22 5 -12 2 9 2 23 0 30 -3 6 -5 -1 -5 -18z"/>
<path d="M525 2693 c4 -421 2 -735 -3 -808 -7 -84 -7 -124 1 -133 8 -11 13
-11 23 0 9 10 10 42 4 133 -5 66 -9 429 -9 808 -1 493 -4 687 -12 687 -8 0 -9
-189 -4 -687z"/>
<path d="M5690 3374 c0 -8 62 -35 72 -32 6 2 -8 11 -31 20 -22 9 -41 15 -41
12z"/>
<path d="M5860 3371 c0 -5 14 -19 30 -31 17 -12 30 -17 30 -11 0 5 -13 19 -30
31 -16 12 -30 17 -30 11z"/>
<path d="M6631 3324 c0 -11 3 -14 6 -6 3 7 2 16 -1 19 -3 4 -6 -2 -5 -13z"/>
<path d="M6625 3290 c4 -6 1 -18 -6 -26 -10 -12 -9 -13 4 -8 12 4 14 1 10 -18
-3 -13 -3 -20 1 -16 4 3 9 22 10 42 2 26 -1 36 -11 36 -8 0 -11 -5 -8 -10z"/>
<path d="M1018 3283 c7 -3 16 -2 19 1 4 3 -2 6 -13 5 -11 0 -14 -3 -6 -6z"/>
<path d="M3 3205 c0 -38 2 -53 4 -32 2 20 2 52 0 70 -2 17 -4 1 -4 -38z"/>
<path d="M6566 3253 c-4 -12 -7 -41 -6 -65 0 -24 -3 -69 -6 -100 -5 -47 -4
-59 9 -64 16 -6 50 22 55 45 3 16 -26 71 -39 71 -6 0 -6 6 0 18 6 11 7 39 2
68 -6 39 -9 45 -15 27z"/>
<path d="M6801 3231 c-12 -22 11 -63 23 -43 4 7 1 12 -6 12 -9 0 -9 3 2 10 9
6 11 10 3 10 -7 0 -10 7 -7 15 9 21 -3 19 -15 -4z"/>
<path d="M103 3214 c-8 -20 13 -42 27 -28 12 12 3 44 -11 44 -5 0 -12 -7 -16
-16z"/>
<path d="M995 3130 c-15 -6 -7 -9 30 -9 36 -1 46 2 35 9 -18 12 -38 12 -65 0z"/>
<path d="M6819 3113 c-1 -5 -2 -19 -2 -33 -2 -18 -9 -26 -25 -28 -14 -2 -22
-9 -19 -17 8 -19 -16 -82 -29 -78 -7 2 -10 -8 -8 -29 l3 -33 -15 25 c-8 14
-13 17 -10 8 6 -20 -10 -25 -17 -5 -2 6 -4 0 -4 -15 0 -15 3 -25 8 -22 5 3 9
0 9 -5 0 -6 -5 -11 -11 -11 -5 0 -7 -5 -4 -10 4 -6 11 -8 17 -4 5 3 9 -2 8
-12 -4 -36 0 -44 22 -44 12 0 19 -3 15 -6 -3 -4 4 -21 17 -38 20 -27 22 -41
19 -105 -1 -41 -8 -92 -15 -115 -6 -23 -11 -44 -10 -48 1 -5 -2 -8 -7 -8 -6 0
-8 -12 -7 -27 2 -16 4 -35 5 -43 1 -8 9 1 18 20 l16 35 8 -50 c10 -70 11 -263
1 -269 -5 -3 -7 -19 -4 -37 3 -20 1 -29 -5 -26 -6 4 -8 -4 -5 -20 3 -17 1 -24
-6 -19 -6 3 -14 1 -18 -5 -4 -8 -3 -9 4 -5 14 9 15 -8 3 -52 -5 -17 -6 -32 -2
-32 5 0 7 -14 5 -31 -2 -18 0 -28 6 -24 6 3 10 1 10 -4 0 -6 -5 -11 -11 -11
-6 0 -7 -5 -2 -12 11 -18 11 -46 2 -178 -4 -63 -9 -159 -10 -213 -1 -54 -6
-100 -12 -104 -5 -3 -7 -2 -4 4 4 6 0 19 -8 29 -14 18 -14 17 -13 -11 1 -16 7
-34 13 -38 5 -5 1 -6 -10 -2 -45 17 -60 12 -62 -22 -1 -18 3 -33 8 -33 4 0 5
-7 2 -17 -4 -10 -2 -14 5 -9 6 3 13 2 17 -4 3 -5 16 -10 28 -10 16 0 18 3 9
12 -21 21 -13 30 9 9 39 -36 37 -289 -2 -265 -5 3 -9 1 -9 -4 0 -5 -6 -9 -14
-9 -8 0 -12 6 -9 12 3 9 -6 11 -28 9 -39 -5 -37 -3 -43 -37 -3 -19 -1 -26 7
-21 7 3 4 -1 -5 -9 -10 -8 -18 -20 -18 -28 0 -12 -2 -12 -9 0 -7 11 -10 11
-15 0 -3 -8 -4 32 -1 88 3 56 1 104 -4 107 -14 9 -22 -22 -31 -127 -5 -54 -14
-105 -22 -114 -8 -11 -8 -14 -1 -10 8 5 11 1 10 -12 0 -11 -5 -17 -9 -15 -4 3
-8 -2 -8 -10 0 -9 -6 -16 -14 -16 -27 0 -43 -33 -45 -90 -1 -19 -4 -22 -10
-11 -6 10 -8 2 -6 -22 3 -29 0 -37 -13 -38 -14 0 -13 -2 3 -9 17 -7 17 -9 3
-9 -11 -1 -18 -9 -18 -21 0 -18 -10 -47 -32 -96 -15 -32 -2 -116 20 -135 12
-9 22 -33 25 -57 2 -23 11 -49 18 -59 12 -14 12 -16 0 -8 -11 6 -13 4 -8 -8 4
-12 2 -14 -10 -10 -10 4 -14 2 -10 -4 4 -6 4 -18 1 -27 -5 -12 -22 -16 -73
-17 -99 -1 -124 -17 -28 -18 l78 -1 -20 -22 c-11 -11 -18 -26 -14 -31 3 -6 2
-7 -4 -4 -5 3 -17 -3 -26 -14 -10 -11 -31 -22 -47 -25 -23 -5 -28 -10 -21 -23
10 -19 3 -44 -10 -36 -5 4 -6 -1 -3 -9 5 -14 42 -16 280 -16 l274 0 0 1560 c0
1313 -2 1620 -11 1553z m-2 -1626 c-2 -23 -3 -1 -3 48 0 50 1 68 3 42 2 -26 2
-67 0 -90z m-140 -503 c-3 -3 -12 -4 -19 -1 -8 3 -5 6 6 6 11 1 17 -2 13 -5z"/>
<path d="M75 3028 c3 -13 12 -54 21 -93 31 -142 33 -147 56 -139 28 8 37 -10
27 -55 -11 -50 -17 -221 -8 -221 4 0 9 6 12 13 3 7 9 2 15 -13 9 -23 10 -21
11 20 2 45 1 73 -3 143 -1 21 8 62 21 95 23 55 24 102 3 102 -6 0 -10 -9 -10
-19 0 -24 -16 -36 -26 -20 -5 8 -2 10 7 5 8 -4 7 -2 -2 6 -15 13 -19 51 -7 64
8 8 -12 54 -24 54 -4 0 -8 8 -8 17 0 15 -1 15 -13 -1 -13 -18 -15 -17 -35 12
-12 16 -22 35 -22 41 0 6 -5 11 -10 11 -6 0 -8 -10 -5 -22z"/>
<path d="M6657 3037 c-6 -17 3 -66 14 -73 5 -3 9 15 9 40 0 44 -12 61 -23 33z"/>
<path d="M248 2992 c-3 -9 -1 -26 3 -37 6 -15 8 -11 8 18 1 40 -4 48 -11 19z"/>
<path d="M6581 2983 c-10 -26 -10 -27 4 -9 8 11 15 23 15 28 0 15 -7 8 -19
-19z"/>
<path d="M6235 2994 c29 -11 225 -71 225 -68 0 12 -186 74 -220 73 -8 0 -10
-2 -5 -5z"/>
<path d="M6597 2966 c-9 -24 -9 -28 3 -21 6 3 10 1 10 -6 0 -7 2 -10 5 -7 3 3
2 15 -3 28 -8 20 -9 21 -15 6z"/>
<path d="M5700 2885 c0 -8 7 -15 16 -15 14 0 14 3 4 15 -7 8 -14 15 -16 15 -2
0 -4 -7 -4 -15z"/>
<path d="M835 2770 c-3 -6 1 -7 9 -4 18 7 21 14 7 14 -6 0 -13 -4 -16 -10z"/>
<path d="M1074 2628 l-19 -23 23 19 c21 18 27 26 19 26 -2 0 -12 -10 -23 -22z"/>
<path d="M6300 2546 c0 -2 9 -6 20 -9 11 -3 18 -1 14 4 -5 9 -34 13 -34 5z"/>
<path d="M167 2483 c-10 -9 -9 -23 1 -23 5 0 9 7 9 15 0 17 -1 18 -10 8z"/>
<path d="M190 2445 c0 -8 4 -15 10 -15 5 0 7 7 4 15 -4 8 -8 15 -10 15 -2 0
-4 -7 -4 -15z"/>
<path d="M1620 2399 c-45 -79 -50 -96 -10 -39 40 58 63 100 53 100 -5 0 -24
-28 -43 -61z"/>
<path d="M160 2436 c0 -9 5 -16 10 -16 6 0 10 4 10 9 0 6 -4 13 -10 16 -5 3
-10 -1 -10 -9z"/>
<path d="M764 2348 c-42 -35 -85 -69 -95 -77 -11 -7 -19 -17 -19 -22 0 -5 45
28 100 72 55 45 100 83 100 85 0 9 -13 0 -86 -58z"/>
<path d="M160 2322 c0 -18 5 -32 10 -32 6 0 8 11 4 28 -10 39 -14 40 -14 4z"/>
<path d="M6726 2337 c3 -10 9 -15 12 -12 3 3 0 11 -7 18 -10 9 -11 8 -5 -6z"/>
<path d="M6437 2321 c6 -7 9 -20 6 -27 -3 -8 -3 -14 0 -14 14 0 14 30 -1 41
-14 11 -15 11 -5 0z"/>
<path d="M1164 2268 c-30 -47 -86 -177 -82 -190 2 -4 29 46 60 112 31 66 55
120 52 120 -2 0 -16 -19 -30 -42z"/>
<path d="M171 2264 c0 -11 3 -14 6 -6 3 7 2 16 -1 19 -3 4 -6 -2 -5 -13z"/>
<path d="M6436 2260 c4 -8 10 -24 11 -34 5 -27 13 -33 14 -10 1 15 3 13 9 -6
7 -22 8 -22 9 -4 1 11 -11 31 -26 45 -14 13 -22 17 -17 9z"/>
<path d="M6704 2228 c-37 -22 -50 -60 -60 -186 -7 -82 -11 -94 -19 -54 -2 11
-9 30 -14 41 -6 11 -9 34 -6 50 6 34 -15 61 -46 61 -11 0 -18 4 -15 8 3 5 -1
9 -7 9 -8 0 -13 -15 -13 -38 0 -21 3 -36 8 -33 8 5 7 -1 -7 -41 -6 -18 -8 -17
-21 10 -14 30 -14 30 -8 -15 3 -25 16 -72 29 -105 13 -33 26 -76 29 -95 24
-128 36 -279 36 -437 0 -103 4 -183 9 -183 14 0 22 80 24 247 1 83 5 147 8
141 11 -18 16 15 18 117 1 55 8 172 16 260 8 88 15 166 15 173 0 7 11 17 25
22 27 10 39 29 33 53 -2 11 -9 10 -34 -5z"/>
<path d="M5285 2171 c22 -23 49 -47 60 -53 l20 -11 -20 23 c-11 12 -38 36 -60
53 l-40 31 40 -43z"/>
<path d="M1649 2178 c-6 -12 -26 -41 -42 -63 -30 -39 -30 -40 -3 -15 31 28 71
89 63 96 -3 3 -11 -5 -18 -18z"/>
<path d="M6476 2165 c4 -8 8 -15 10 -15 2 0 4 7 4 15 0 8 -4 15 -10 15 -5 0
-7 -7 -4 -15z"/>
<path d="M5515 2146 c9 -15 33 -55 52 -87 18 -33 36 -59 39 -59 9 0 -56 114
-82 145 l-26 30 17 -29z"/>
<path d="M6423 2100 c-1 -11 2 -20 7 -20 4 0 7 7 6 15 -3 23 -12 26 -13 5z"/>
<path d="M1148 1993 c-25 -27 -72 -98 -51 -78 39 38 94 105 86 105 -5 0 -21
-12 -35 -27z"/>
<path d="M272 1985 c-26 -19 -33 -53 -33 -157 -1 -106 -1 -106 11 -88 5 8 10
35 10 60 0 29 9 62 25 92 39 73 32 124 -13 93z"/>
<path d="M1861 1941 c-12 -29 -20 -55 -17 -58 7 -7 48 87 43 100 -2 6 -13 -13
-26 -42z"/>
<path d="M780 1960 c-6 -12 -9 -24 -7 -27 3 -2 11 5 17 17 6 12 9 24 7 27 -3
2 -11 -5 -17 -17z"/>
<path d="M1163 1928 c-20 -26 -26 -41 -15 -34 12 7 36 46 29 46 -3 0 -9 -6
-14 -12z"/>
<path d="M5545 1906 c42 -13 59 -11 35 4 -8 6 -28 9 -45 9 -28 -1 -28 -1 10
-13z"/>
<path d="M6120 1864 c0 -29 -8 -46 -32 -71 -18 -18 -27 -33 -22 -33 13 0 47
37 63 67 14 27 14 60 1 68 -6 4 -10 -9 -10 -31z"/>
<path d="M5444 1858 c14 -20 26 -41 26 -47 0 -6 5 -11 10 -11 19 0 10 21 -26
58 l-37 37 27 -37z"/>
<path d="M1000 1830 c-12 -23 -19 -47 -17 -53 2 -7 14 10 25 37 27 61 21 73
-8 16z"/>
<path d="M1676 1824 c-3 -9 -6 -35 -6 -59 0 -49 8 -75 21 -75 6 0 4 10 -2 22
-7 13 -9 43 -6 75 6 54 4 65 -7 37z"/>
<path d="M1616 1811 c-4 -7 -5 -15 -2 -18 9 -9 19 4 14 18 -4 11 -6 11 -12 0z"/>
<path d="M5632 1792 c-11 -25 -11 -25 4 -10 9 9 15 21 13 27 -2 6 -10 -2 -17
-17z"/>
<path d="M1285 1790 c-3 -5 -2 -10 4 -10 5 0 13 5 16 10 3 6 2 10 -4 10 -5 0
-13 -4 -16 -10z"/>
<path d="M5930 1791 c0 -10 30 -24 37 -17 3 2 -5 9 -16 16 -12 6 -21 7 -21 1z"/>
<path d="M1464 1769 c-19 -22 -19 -22 4 -10 12 6 22 16 22 21 0 15 -5 12 -26
-11z"/>
<path d="M6440 1745 c0 -14 2 -25 4 -25 2 0 6 11 8 25 3 14 1 25 -3 25 -5 0
-9 -11 -9 -25z"/>
<path d="M5311 1685 c-12 -31 -21 -61 -21 -68 1 -7 12 17 26 52 13 35 22 66
20 68 -2 3 -13 -21 -25 -52z"/>
<path d="M4990 1688 c-17 -31 -19 -39 -7 -29 9 7 17 10 17 5 0 -19 22 16 24
40 5 38 -7 32 -34 -16z"/>
<path d="M5241 1661 c-21 -68 -26 -100 -16 -89 11 11 53 158 45 158 -4 0 -17
-31 -29 -69z"/>
<path d="M1480 1685 c0 -8 2 -15 4 -15 2 0 6 7 10 15 3 8 1 15 -4 15 -6 0 -10
-7 -10 -15z"/>
<path d="M1267 1673 c-11 -10 -8 -41 4 -49 6 -3 18 1 27 9 13 13 13 19 2 31
-14 17 -23 20 -33 9z m19 -30 c-10 -10 -19 5 -10 18 6 11 8 11 12 0 2 -7 1
-15 -2 -18z"/>
<path d="M1386 1668 c-3 -7 -9 -28 -15 -47 -13 -41 -6 -55 9 -17 16 42 23 76
16 76 -4 0 -8 -6 -10 -12z"/>
<path d="M1136 1634 c-3 -9 -6 -38 -6 -65 0 -40 5 -54 30 -81 16 -18 30 -27
30 -20 0 6 -4 12 -9 12 -21 0 -43 73 -37 121 7 49 3 63 -8 33z"/>
<path d="M1713 1633 c9 -2 23 -2 30 0 6 3 -1 5 -18 5 -16 0 -22 -2 -12 -5z"/>
<path d="M5155 1590 c-3 -5 -2 -10 4 -10 5 0 13 5 16 10 3 6 2 10 -4 10 -5 0
-13 -4 -16 -10z"/>
<path d="M5774 1579 c4 -13 11 -37 15 -54 7 -25 9 -27 16 -12 4 9 2 31 -5 47
-16 38 -36 53 -26 19z"/>
<path d="M5687 1486 c-4 -60 -5 -112 -2 -114 13 -13 16 13 13 114 l-3 109 -8
-109z"/>
<path d="M21 1524 c0 -11 3 -14 6 -6 3 7 2 16 -1 19 -3 4 -6 -2 -5 -13z"/>
<path d="M471 1525 c0 -11 4 -27 9 -35 9 -13 10 -13 9 0 0 8 -4 24 -9 35 l-9
20 0 -20z"/>
<path d="M13 1486 c-9 -11 -12 -193 -13 -750 l0 -736 175 0 176 0 -2 51 c-2
32 2 53 10 58 16 11 4 61 -18 69 -9 3 -22 14 -29 24 -7 10 -17 16 -21 13 -12
-7 -21 118 -20 267 0 71 -4 134 -8 142 -11 19 -53 2 -54 -21 0 -16 -1 -15 -8
2 -5 11 -7 28 -5 38 1 9 -1 17 -7 17 -5 0 -9 7 -9 15 0 8 4 15 9 15 5 0 11 9
14 20 7 28 37 15 37 -16 0 -13 4 -24 10 -24 5 0 9 11 8 25 -1 14 -5 25 -9 25
-3 0 -6 42 -6 93 0 100 -9 160 -24 151 -5 -3 -9 -14 -9 -25 0 -10 -4 -19 -10
-19 -5 0 -10 6 -10 14 0 13 -35 32 -52 28 -3 -1 -9 5 -12 14 -4 10 -1 13 7 9
6 -4 4 0 -6 8 -10 8 -17 19 -16 23 3 21 -2 35 -11 29 -7 -4 -7 3 0 20 14 38
13 50 -5 35 -12 -10 -16 -9 -21 5 -4 10 -1 21 7 26 11 7 10 11 -5 22 -11 8
-17 18 -14 23 3 5 2 33 -2 62 -5 41 -3 55 7 59 18 7 -2 33 -26 34 -10 0 -11 2
-3 6 6 2 12 9 12 14 0 6 -4 8 -9 5 -18 -11 -20 25 -2 43 17 17 17 19 -1 41
-11 13 -16 31 -13 41 7 22 4 23 -12 5z m27 -66 c0 -5 -2 -10 -4 -10 -3 0 -8 5
-11 10 -3 6 -1 10 4 10 6 0 11 -4 11 -10z m15 -110 c3 -5 -1 -10 -10 -10 -9 0
-13 5 -10 10 3 6 8 10 10 10 2 0 7 -4 10 -10z"/>
<path d="M270 1413 c0 -5 5 -15 10 -23 8 -12 10 -11 10 8 0 12 -4 22 -10 22
-5 0 -10 -3 -10 -7z"/>
<path d="M5193 1360 c-13 -5 -23 -12 -23 -15 0 -10 27 -5 46 10 21 16 11 18
-23 5z"/>
<path d="M6100 1350 c0 -5 5 -10 10 -10 6 0 10 5 10 10 0 6 -4 10 -10 10 -5 0
-10 -4 -10 -10z"/>
<path d="M6270 1340 c0 -5 5 -10 10 -10 6 0 10 5 10 10 0 6 -4 10 -10 10 -5 0
-10 -4 -10 -10z"/>
<path d="M706 1317 c3 -10 9 -15 12 -12 3 3 0 11 -7 18 -10 9 -11 8 -5 -6z"/>
<path d="M1555 1300 c3 -5 10 -10 16 -10 5 0 9 5 9 10 0 6 -7 10 -16 10 -8 0
-12 -4 -9 -10z"/>
<path d="M1110 1260 c0 -16 4 -30 8 -30 5 0 7 14 4 30 -2 17 -6 30 -8 30 -2 0
-4 -13 -4 -30z"/>
<path d="M6650 1266 c0 -9 5 -16 10 -16 6 0 10 4 10 9 0 6 -4 13 -10 16 -5 3
-10 -1 -10 -9z"/>
<path d="M1460 1260 c0 -5 10 -10 23 -10 18 0 19 2 7 10 -19 13 -30 13 -30 0z"/>
<path d="M540 1250 c0 -5 5 -10 11 -10 5 0 7 5 4 10 -3 6 -8 10 -11 10 -2 0
-4 -4 -4 -10z"/>
<path d="M150 1240 c0 -5 5 -10 11 -10 5 0 7 5 4 10 -3 6 -8 10 -11 10 -2 0
-4 -4 -4 -10z"/>
<path d="M5956 1223 c17 -68 56 -113 101 -113 l23 0 -1 -297 c-1 -187 -4 -278
-9 -244 -9 62 -51 113 -109 132 -45 15 -238 5 -309 -16 -29 -9 -57 -13 -62
-10 -11 7 -95 -34 -87 -42 3 -2 16 1 29 8 12 7 34 14 48 15 14 1 58 9 97 18
40 9 115 17 167 18 85 1 98 -1 138 -25 68 -39 90 -115 55 -186 -14 -29 -15
-31 -1 -20 9 7 20 22 24 34 7 17 9 15 9 -12 1 -22 6 -33 15 -33 8 0 17 3 19 7
2 5 1 152 -4 328 l-8 320 23 25 c31 33 46 64 45 92 0 20 -2 19 -11 -7 -13 -36
-44 -72 -70 -81 -43 -13 -108 40 -108 90 0 8 -5 18 -10 21 -7 4 -8 -3 -4 -22z"/>
<path d="M1520 1231 c0 -5 7 -12 16 -15 14 -5 15 -4 4 9 -14 17 -20 19 -20 6z"/>
<path d="M6675 1230 c-4 -6 -10 -8 -15 -5 -5 3 -14 -4 -20 -15 -14 -27 2 -50
37 -50 27 0 39 21 27 48 -4 9 -6 20 -6 25 3 11 -16 9 -23 -3z"/>
<path d="M6314 1105 c0 -71 1 -99 3 -62 2 37 2 96 0 130 -2 34 -3 4 -3 -68z"/>
<path d="M81 1203 c0 -6 -4 -20 -7 -30 -5 -14 -4 -15 5 -7 7 7 11 20 8 30 -3
11 -5 14 -6 7z"/>
<path d="M101 1159 c-1 -24 4 -39 14 -43 18 -7 19 9 0 49 l-13 30 -1 -36z"/>
<path d="M6576 1178 c3 -5 10 -6 15 -3 13 9 11 12 -6 12 -8 0 -12 -4 -9 -9z"/>
<path d="M5873 1135 c0 -22 2 -30 4 -17 2 12 2 30 0 40 -3 9 -5 -1 -4 -23z"/>
<path d="M1543 1139 c22 -11 41 -18 44 -15 5 5 -62 36 -76 36 -3 -1 11 -10 32
-21z"/>
<path d="M6556 1145 c-3 -9 -6 -22 -5 -28 0 -7 5 -1 10 12 5 13 8 26 5 28 -2
2 -6 -3 -10 -12z"/>
<path d="M972 1080 c0 -19 2 -27 5 -17 2 9 2 25 0 35 -3 9 -5 1 -5 -18z"/>
<path d="M150 1089 c0 -5 5 -7 10 -4 6 3 10 8 10 11 0 2 -4 4 -10 4 -5 0 -10
-5 -10 -11z"/>
<path d="M5685 1060 c-3 -5 -1 -10 4 -10 6 0 11 5 11 10 0 6 -2 10 -4 10 -3 0
-8 -4 -11 -10z"/>
<path d="M5863 1005 c0 -38 2 -53 4 -32 2 20 2 52 0 70 -2 17 -4 1 -4 -38z"/>
<path d="M6465 1059 c-4 -6 -5 -12 -2 -15 2 -3 7 2 10 11 7 17 1 20 -8 4z"/>
<path d="M5594 993 c0 -26 -4 -57 -9 -68 -8 -18 -7 -19 8 -6 18 14 23 85 8
109 -5 8 -8 -5 -7 -35z"/>
<path d="M6257 1020 c3 -11 7 -20 9 -20 2 0 4 9 4 20 0 11 -4 20 -9 20 -5 0
-7 -9 -4 -20z"/>
<path d="M1415 1010 c3 -5 11 -10 16 -10 6 0 7 5 4 10 -3 6 -11 10 -16 10 -6
0 -7 -4 -4 -10z"/>
<path d="M175 1000 c-3 -5 1 -10 10 -10 9 0 13 5 10 10 -3 6 -8 10 -10 10 -2
0 -7 -4 -10 -10z"/>
<path d="M826 978 c-52 -47 -35 -120 28 -120 59 0 92 77 51 122 -24 26 -48 25
-79 -2z m62 -10 c7 -7 12 -24 12 -38 0 -32 -17 -50 -47 -50 -15 0 -27 8 -32
23 -19 51 31 101 67 65z"/>
<path d="M5318 949 c-43 -17 -78 -34 -78 -39 0 -9 150 46 165 61 15 15 -4 10
-87 -22z"/>
<path d="M577 943 c-14 -13 -6 -33 13 -33 13 0 20 7 20 20 0 19 -20 27 -33 13z
m18 -13 c3 -5 1 -10 -4 -10 -6 0 -11 5 -11 10 0 6 2 10 4 10 3 0 8 -4 11 -10z"/>
<path d="M1330 920 c0 -6 7 -10 15 -10 8 0 15 2 15 4 0 2 -7 6 -15 10 -8 3
-15 1 -15 -4z"/>
<path d="M5425 920 c3 -5 8 -10 11 -10 2 0 4 5 4 10 0 6 -5 10 -11 10 -5 0 -7
-4 -4 -10z"/>
<path d="M1380 806 c0 -2 7 -7 16 -10 8 -3 12 -2 9 4 -6 10 -25 14 -25 6z"/>
<path d="M1250 769 c-53 -15 -63 -19 -58 -24 8 -8 107 15 114 26 6 11 -9 10
-56 -2z"/>
<path d="M5245 770 c-3 -5 -15 -10 -26 -10 -10 0 -19 -4 -19 -10 0 -5 6 -10
14 -10 17 0 66 39 49 40 -6 0 -15 -4 -18 -10z"/>
<path d="M1450 760 c20 -13 43 -13 35 0 -3 6 -16 10 -28 10 -18 0 -19 -2 -7
-10z"/>
<path d="M735 744 c-57 -29 -105 -103 -105 -161 0 -15 9 -47 20 -71 27 -59 73
-79 147 -62 29 6 63 20 75 31 l23 20 -39 -16 c-52 -21 -135 -19 -162 3 -30 24
-44 55 -44 97 0 43 28 108 42 99 5 -3 12 3 15 14 3 11 18 26 34 32 29 12 48
30 32 30 -4 0 -21 -7 -38 -16z"/>
<path d="M1468 693 c7 -3 16 -2 19 1 4 3 -2 6 -13 5 -11 0 -14 -3 -6 -6z"/>
<path d="M1375 670 c-27 -10 -43 -18 -35 -18 8 0 38 8 65 18 28 10 43 18 35
18 -8 0 -37 -8 -65 -18z"/>
<path d="M5804 658 l-19 -23 23 19 c12 11 22 21 22 23 0 8 -8 2 -26 -19z"/>
<path d="M1230 660 c-18 -12 -2 -12 25 0 13 6 15 9 5 9 -8 0 -22 -4 -30 -9z"/>
<path d="M439 590 c28 -38 32 -51 28 -87 -5 -46 7 -50 16 -6 7 36 -13 81 -48
113 -27 24 -27 23 4 -20z"/>
<path d="M1255 610 c3 -5 8 -10 11 -10 2 0 4 5 4 10 0 6 -5 10 -11 10 -5 0 -7
-4 -4 -10z"/>
<path d="M6000 578 c0 -7 5 -20 10 -28 8 -12 10 -11 10 7 0 12 -4 25 -10 28
-5 3 -10 0 -10 -7z"/>
<path d="M5435 560 c-3 -5 1 -10 9 -10 9 0 16 5 16 10 0 6 -4 10 -9 10 -6 0
-13 -4 -16 -10z"/>
<path d="M5270 535 c-14 -16 -10 -18 14 -9 9 3 16 10 16 15 0 14 -16 11 -30
-6z"/>
<path d="M1575 500 c-42 -20 -53 -29 -37 -30 27 0 73 22 91 44 17 20 18 20
-54 -14z"/>
<path d="M5244 479 c-19 -22 -19 -22 4 -10 12 6 22 16 22 21 0 15 -5 12 -26
-11z"/>
<path d="M1470 451 c0 -5 7 -12 16 -15 24 -9 27 -7 10 9 -17 17 -26 19 -26 6z"/>
<path d="M5945 400 c-3 -5 -1 -10 4 -10 6 0 11 5 11 10 0 6 -2 10 -4 10 -3 0
-8 -4 -11 -10z"/>
<path d="M881 375 c-68 -25 -98 -45 -68 -45 10 0 46 12 80 26 110 46 101 61
-12 19z"/>
<path d="M5277 374 c-16 -9 -27 -18 -24 -20 7 -7 57 18 57 28 0 10 1 10 -33
-8z"/>
<path d="M335 369 c-4 -6 -5 -12 -2 -15 2 -3 7 2 10 11 7 17 1 20 -8 4z"/>
<path d="M314 291 c1 -47 2 -48 14 -25 10 20 10 29 -1 50 -13 25 -13 24 -13
-25z"/>
<path d="M340 319 c0 -5 5 -7 10 -4 6 3 10 8 10 11 0 2 -4 4 -10 4 -5 0 -10
-5 -10 -11z"/>
<path d="M1437 307 c-4 -10 -7 -28 -6 -40 0 -21 1 -21 10 2 5 14 8 32 7 40 -3
13 -5 13 -11 -2z"/>
<path d="M5954 226 c-7 -19 3 -36 22 -36 10 0 14 8 12 22 -4 26 -26 36 -34 14z"/>
<path d="M5840 211 c0 -6 5 -13 10 -16 6 -3 10 1 10 9 0 9 -4 16 -10 16 -5 0
-10 -4 -10 -9z"/>
<path d="M430 203 c0 -10 250 -26 259 -17 11 10 -14 14 -132 20 -83 5 -127 4
-127 -3z"/>
<path d="M5998 176 c-3 -14 -1 -26 4 -26 14 0 22 30 11 41 -7 7 -12 2 -15 -15z"/>
<path d="M380 165 c-7 -9 -11 -18 -8 -20 3 -3 11 1 18 10 7 9 11 18 8 20 -3 3
-11 -1 -18 -10z"/>
<path d="M510 140 c101 -12 238 -11 220 0 -8 5 -76 9 -150 8 -114 -1 -125 -2
-70 -8z"/>
<path d="M5366 64 c-3 -8 1 -14 9 -14 20 0 28 17 11 23 -8 3 -17 -1 -20 -9z"/>
<path d="M1118 44 c-3 -3 -104 -10 -224 -15 -120 -5 -220 -12 -223 -14 -15
-16 33 -17 227 -6 429 25 473 28 479 35 3 3 -52 6 -124 6 -71 0 -132 -2 -135
-6z"/>
<path d="M2080 10 l-45 -7 47 -1 c26 -1 50 3 53 8 3 6 3 9 -2 8 -4 0 -28 -4
-53 -8z"/>
<path d="M1978 3 c6 -2 18 -2 25 0 6 3 1 5 -13 5 -14 0 -19 -2 -12 -5z"/>
</g>
</svg>
